<svg xmlns="http://www.w3.org/2000/svg" xmlns:xlink="http://www.w3.org/1999/xlink" viewBox="0,0,256,256" width="64px" height="64px"><defs><linearGradient x1="27.89549" y1="20.75517" x2="27.89549" y2="20.75517" gradientUnits="userSpaceOnUse" id="color-1"><stop offset="0" stop-color="#fb6d48"></stop><stop offset="1" stop-color="#4e5154"></stop></linearGradient><linearGradient x1="36.1379" y1="20.15947" x2="36.1379" y2="20.15947" gradientUnits="userSpaceOnUse" id="color-2"><stop offset="0" stop-color="#fb6d48"></stop><stop offset="1" stop-color="#4e5154"></stop></linearGradient><linearGradient x1="32.17258" y1="17.67738" x2="32.17258" y2="17.67738" gradientUnits="userSpaceOnUse" id="color-3"><stop offset="0" stop-color="#fb6d48"></stop><stop offset="1" stop-color="#4e5154"></stop></linearGradient><linearGradient x1="34.38214" y1="49.76284" x2="34.38214" y2="49.76284" gradientUnits="userSpaceOnUse" id="color-4"><stop offset="0" stop-color="#fb6d48"></stop><stop offset="1" stop-color="#4e5154"></stop></linearGradient><linearGradient x1="49.49597" y1="40.77524" x2="49.49597" y2="40.77524" gradientUnits="userSpaceOnUse" id="color-5"><stop offset="0" stop-color="#fb6d48"></stop><stop offset="1" stop-color="#4e5154"></stop></linearGradient><linearGradient x1="38.953" y1="50.039" x2="38.953" y2="16.847" gradientUnits="userSpaceOnUse" id="color-6"><stop offset="0" stop-color="#fb6d48"></stop><stop offset="1" stop-color="#4e5154"></stop></linearGradient><linearGradient x1="38.895" y1="50.039" x2="38.895" y2="16.847" gradientUnits="userSpaceOnUse" id="color-7"><stop offset="0" stop-color="#fb6d48"></stop><stop offset="1" stop-color="#4e5154"></stop></linearGradient><linearGradient x1="39.473" y1="50.039" x2="39.473" y2="16.847" gradientUnits="userSpaceOnUse" id="color-8"><stop offset="0" stop-color="#fb6d48"></stop><stop offset="1" stop-color="#4e5154"></stop></linearGradient><linearGradient x1="39.794" y1="50.039" x2="39.794" y2="16.847" gradientUnits="userSpaceOnUse" id="color-9"><stop offset="0" stop-color="#fb6d48"></stop><stop offset="1" stop-color="#4e5154"></stop></linearGradient><linearGradient x1="41.691" y1="50.039" x2="41.691" y2="16.847" gradientUnits="userSpaceOnUse" id="color-10"><stop offset="0" stop-color="#fb6d48"></stop><stop offset="1" stop-color="#4e5154"></stop></linearGradient><linearGradient x1="42.535" y1="50.039" x2="42.535" y2="16.847" gradientUnits="userSpaceOnUse" id="color-11"><stop offset="0" stop-color="#fb6d48"></stop><stop offset="1" stop-color="#4e5154"></stop></linearGradient><linearGradient x1="36.938" y1="50.039" x2="36.938" y2="16.847" gradientUnits="userSpaceOnUse" id="color-12"><stop offset="0" stop-color="#fb6d48"></stop><stop offset="1" stop-color="#4e5154"></stop></linearGradient><linearGradient x1="37.133" y1="50.039" x2="37.133" y2="16.847" gradientUnits="userSpaceOnUse" id="color-13"><stop offset="0" stop-color="#fb6d48"></stop><stop offset="1" stop-color="#4e5154"></stop></linearGradient><linearGradient x1="39.008" y1="50.039" x2="39.008" y2="16.847" gradientUnits="userSpaceOnUse" id="color-14"><stop offset="0" stop-color="#fb6d48"></stop><stop offset="1" stop-color="#4e5154"></stop></linearGradient><linearGradient x1="39.21" y1="50.039" x2="39.21" y2="16.847" gradientUnits="userSpaceOnUse" id="color-15"><stop offset="0" stop-color="#fb6d48"></stop><stop offset="1" stop-color="#4e5154"></stop></linearGradient><linearGradient x1="42.972" y1="50.039" x2="42.972" y2="16.847" gradientUnits="userSpaceOnUse" id="color-16"><stop offset="0" stop-color="#fb6d48"></stop><stop offset="1" stop-color="#4e5154"></stop></linearGradient><linearGradient x1="38.066" y1="50.039" x2="38.066" y2="16.847" gradientUnits="userSpaceOnUse" id="color-17"><stop offset="0" stop-color="#fb6d48"></stop><stop offset="1" stop-color="#4e5154"></stop></linearGradient><linearGradient x1="31.997" y1="50.039" x2="31.997" y2="16.847" gradientUnits="userSpaceOnUse" id="color-18"><stop offset="0" stop-color="#fb6d48"></stop><stop offset="1" stop-color="#4e5154"></stop></linearGradient><linearGradient x1="42.157" y1="50.039" x2="42.157" y2="16.847" gradientUnits="userSpaceOnUse" id="color-19"><stop offset="0" stop-color="#fb6d48"></stop><stop offset="1" stop-color="#4e5154"></stop></linearGradient><linearGradient x1="38.981" y1="50.039" x2="38.981" y2="16.847" gradientUnits="userSpaceOnUse" id="color-20"><stop offset="0" stop-color="#fb6d48"></stop><stop offset="1" stop-color="#4e5154"></stop></linearGradient><linearGradient x1="36.471" y1="50.039" x2="36.471" y2="16.847" gradientUnits="userSpaceOnUse" id="color-21"><stop offset="0" stop-color="#fb6d48"></stop><stop offset="1" stop-color="#4e5154"></stop></linearGradient><linearGradient x1="38.796" y1="50.039" x2="38.796" y2="16.847" gradientUnits="userSpaceOnUse" id="color-22"><stop offset="0" stop-color="#fb6d48"></stop><stop offset="1" stop-color="#4e5154"></stop></linearGradient><linearGradient x1="36.478" y1="50.039" x2="36.478" y2="16.847" gradientUnits="userSpaceOnUse" id="color-23"><stop offset="0" stop-color="#fb6d48"></stop><stop offset="1" stop-color="#4e5154"></stop></linearGradient><linearGradient x1="39.74" y1="50.039" x2="39.74" y2="16.847" gradientUnits="userSpaceOnUse" id="color-24"><stop offset="0" stop-color="#fb6d48"></stop><stop offset="1" stop-color="#4e5154"></stop></linearGradient><linearGradient x1="39.018" y1="50.039" x2="39.018" y2="16.847" gradientUnits="userSpaceOnUse" id="color-25"><stop offset="0" stop-color="#fb6d48"></stop><stop offset="1" stop-color="#4e5154"></stop></linearGradient><linearGradient x1="39.633" y1="50.039" x2="39.633" y2="16.847" gradientUnits="userSpaceOnUse" id="color-26"><stop offset="0" stop-color="#fb6d48"></stop><stop offset="1" stop-color="#4e5154"></stop></linearGradient><linearGradient x1="43.297" y1="50.039" x2="43.297" y2="16.847" gradientUnits="userSpaceOnUse" id="color-27"><stop offset="0" stop-color="#fb6d48"></stop><stop offset="1" stop-color="#4e5154"></stop></linearGradient><linearGradient x1="36.794" y1="50.039" x2="36.794" y2="16.847" gradientUnits="userSpaceOnUse" id="color-28"><stop offset="0" stop-color="#fb6d48"></stop><stop offset="1" stop-color="#4e5154"></stop></linearGradient><linearGradient x1="32" y1="36.685" x2="32" y2="26.677" gradientUnits="userSpaceOnUse" id="color-29"><stop offset="0" stop-color="#000000"></stop><stop offset="1" stop-color="#fb6d48"></stop></linearGradient></defs><g fill="none" fill-rule="nonzero" stroke="none" stroke-width="1" stroke-linecap="butt" stroke-linejoin="miter" stroke-miterlimit="10" stroke-dasharray="" stroke-dashoffset="0" font-family="none" font-weight="none" font-size="none" text-anchor="none" style="mix-blend-mode: normal"><g transform="scale(4,4)"><path d="M29.551,19.789c-0.055,0.024 -0.109,0.055 -0.167,0.066c-0.153,0.032 -0.298,0.082 -0.434,0.159c-0.065,0.036 -0.126,0.035 -0.186,-0.005c-0.052,-0.036 -0.166,-0.177 -0.161,-0.122c-0.002,0.044 -0.003,0.081 -0.006,0.125c0,0.024 -0.025,-0.003 -0.054,-0.032c-0.027,-0.027 -0.057,-0.052 -0.073,-0.035c-0.041,0.058 -0.016,0.095 0.024,0.114c0.096,0.049 0.191,0.095 0.308,0.06c0.153,-0.046 0.279,-0.066 0.412,-0.172c0.044,-0.032 0.384,-0.107 0.455,-0.178c0.013,-0.016 0.011,-0.021 -0.002,-0.021c-0.024,0.003 -0.089,0.03 -0.116,0.041" fill="url(#color-1)"></path><path d="M35.292,19.491c0.107,0.035 0.191,0.063 0.276,0.087c0.032,0.009 0.069,0.017 0.096,0.005c0.092,-0.041 0.183,-0.035 0.276,-0.016c0.021,0.005 0.043,-0.003 0.077,-0.008c0.047,-0.009 -0.265,-0.077 -0.436,-0.087c-0.024,-0.002 -0.052,-0.002 -0.082,-0.002c-0.112,0.002 -0.242,0.01 -0.207,0.021" fill="url(#color-2)"></path><path d="M31.656,18.659c-0.035,0.011 -0.071,0.006 -0.109,0.003c-0.057,-0.005 -0.115,-0.011 -0.182,0.028c-0.022,0.017 0.065,0.035 0.093,0.035c0.131,-0.002 0.279,-0.009 0.409,-0.019c0.025,-0.002 0.049,-0.032 0.074,-0.047c0.017,-0.011 -0.011,-0.027 -0.016,-0.041c-0.003,-0.003 -0.013,-0.005 -0.028,-0.005c-0.045,-0.002 -0.146,0.017 -0.241,0.046" fill="url(#color-3)"></path><path d="M34.938,49.353c-0.008,0.047 -0.022,0.09 -0.039,0.133l-0.005,0.011c-0.03,0.06 -0.028,0.366 0.186,-0.008c0.087,-0.147 0.068,-0.129 0.016,-0.112c-0.033,0.011 -0.081,0.021 -0.123,-0.006c-0.009,-0.006 -0.003,-0.021 -0.017,-0.021c-0.003,0 -0.005,0 -0.006,-0.002c-0.002,0 -0.003,-0.002 -0.006,-0.002c-0.004,0.003 -0.006,0.004 -0.006,0.007" fill="url(#color-4)"></path><path d="M49.301,40.595c-0.028,0.047 -0.038,0.099 -0.035,0.169c0,0.013 -0.024,0.109 0.003,0.038c0.017,-0.055 0.027,-0.106 0.043,-0.152c0.016,-0.046 0.039,-0.088 0.055,-0.133c0.017,-0.033 0.022,-0.047 0.019,-0.047c-0.007,-0.001 -0.048,0.063 -0.085,0.125" fill="url(#color-5)"></path><path d="M38.873,45.644c-0.041,0.008 0.142,0.002 0.163,-0.049c0.005,-0.011 0.002,-0.014 -0.006,-0.014c-0.029,0 -0.125,0.057 -0.157,0.063z" fill="url(#color-6)"></path><path d="M38.873,45.81c-0.003,0.022 0.017,0.019 0.025,-0.019c0.003,-0.014 0.021,-0.013 0.017,-0.022c-0.003,-0.006 -0.006,-0.009 -0.009,-0.009c-0.011,0.001 -0.028,0.023 -0.033,0.05z" fill="url(#color-7)"></path><path d="M39.431,45.052c-0.002,0.177 0.011,0.076 0.036,0.005c0.017,-0.049 0.051,-0.049 0.049,-0.074c-0.002,-0.021 -0.013,-0.028 -0.025,-0.028c-0.026,-0.001 -0.06,0.033 -0.06,0.097z" fill="url(#color-8)"></path><path d="M39.835,45.108c0.025,-0.03 0.022,-0.06 0.028,-0.079c0.002,-0.005 0.002,-0.008 0.002,-0.008c-0.005,-0.002 -0.032,0.038 -0.062,0.066c-0.032,0.03 -0.068,0.039 -0.079,0.074c-0.012,0.048 0.067,-0.001 0.111,-0.053z" fill="url(#color-9)"></path><path d="M42.148,47.211c0.087,-0.101 0.163,-0.197 0.15,-0.197c-0.006,0 -0.025,0.014 -0.063,0.051c-0.398,0.339 -0.72,0.351 -1.134,0.767c-0.066,0.068 0.076,-0.052 0.114,-0.07c0.237,-0.118 0.434,-0.036 0.745,-0.461c0.033,-0.049 0.117,-0.007 0.188,-0.09z" fill="url(#color-10)"></path><path d="M42.584,46.893c-0.057,-0.011 -0.109,-0.024 -0.204,0.205c-0.016,0.032 -0.032,0.071 0.193,-0.079c0.079,-0.052 0.137,-0.152 0.125,-0.152c-0.002,0 -0.003,0.002 -0.008,0.005c-0.042,0.034 -0.075,0.028 -0.106,0.021z" fill="url(#color-11)"></path><path d="M36.868,48.052c-0.057,0.068 -0.03,0.111 -0.03,0.111c0.035,0.062 0.259,-0.104 0.196,-0.118c-0.035,-0.008 -0.071,-0.017 -0.103,-0.017c-0.025,-0.001 -0.047,0.005 -0.063,0.024z" fill="url(#color-12)"></path><path d="M37.155,48.036c-0.002,-0.006 -0.005,-0.008 -0.011,-0.008c-0.011,0 -0.027,0.009 -0.027,0.009c-0.022,0.01 0.024,0.027 0.028,0.022c0.006,-0.002 0.012,-0.004 0.01,-0.023z" fill="url(#color-13)"></path><path d="M38.921,46.374c-0.003,0 -0.005,0.002 -0.003,0.005c0.011,0.016 0.014,0.019 0.021,0.032c0.003,0.008 0.014,0.003 0.022,-0.002c0.008,-0.005 0.014,-0.009 0.013,-0.003c-0.005,0.011 -0.021,0.035 -0.003,0.071c0.024,0.046 0.052,0.021 0.077,-0.005c0.017,-0.016 0.032,-0.032 0.041,-0.03c0.027,0.008 -0.002,-0.033 -0.022,-0.036c-0.019,-0.002 -0.121,-0.032 -0.146,-0.032z" fill="url(#color-14)"></path><path d="M39.347,44.631c0.003,0.025 0.024,-0.008 0.016,-0.058c-0.005,-0.036 -0.041,-0.062 -0.077,-0.062c-0.014,0.002 -0.028,0.005 -0.039,0.013c-0.043,0.03 -0.112,0.115 -0.18,0.167c-0.069,0.052 0.254,-0.035 0.268,-0.081c0.012,-0.046 0.01,-0.005 0.012,0.021z" fill="url(#color-15)"></path><path d="M42.868,46.721c0.073,-0.057 0.144,-0.115 0.208,-0.18c-0.013,0.009 -0.028,0.022 -0.044,0.028c-0.06,0.064 -0.106,0.039 -0.164,0.152z" fill="url(#color-16)"></path><path d="M37.316,47.478c-0.005,0.003 -0.017,-0.011 -0.028,-0.027c-0.024,-0.03 -0.051,-0.06 -0.041,0.058c0.013,0.178 0.344,0.058 0.289,0.142c-0.027,0.043 -0.036,0.017 -0.016,0.058c0.021,0.041 0.065,0.033 0.052,0.014c-0.011,-0.019 -0.021,-0.107 0.008,-0.101c0.011,0.002 0.039,0.022 0.071,0.046c0.036,0.024 0.096,0 0.117,-0.033c0.017,-0.025 0.043,-0.039 0.069,-0.051c0.01,-0.003 0.017,-0.008 0.027,-0.011c0.035,-0.014 0.081,-0.057 0.118,-0.093c0.036,-0.035 0.111,-0.09 0.188,-0.133c0.076,-0.043 0.248,-0.077 0.325,-0.106c0.087,-0.032 0.123,-0.047 0.199,-0.055c0.011,-0.002 0.021,-0.006 0.025,-0.017c0.022,-0.041 0.006,-0.109 0.093,-0.139c0.087,-0.03 -0.087,-0.052 -0.046,-0.112c0.041,-0.06 0.077,-0.163 0.011,-0.141c-0.066,0.022 -0.09,-0.003 -0.049,-0.013c0.041,-0.01 0.074,-0.017 0.088,-0.021c0.016,-0.005 0.058,-0.052 0.07,-0.093c-0.005,-0.044 -0.044,-0.065 -0.057,-0.09c-0.014,-0.033 0,-0.066 -0.032,-0.073c-0.003,-0.002 -0.006,-0.002 -0.009,-0.002c-0.041,0 -0.041,0.087 -0.024,0.122c0.017,0.038 0.017,0.073 0.014,0.087c-0.003,0.016 -0.009,0.032 -0.017,0.033c-0.009,0.002 -0.016,0.003 -0.016,0.003c-0.028,0.005 -0.032,-0.022 0.002,-0.032c0.032,-0.009 0.003,-0.085 -0.002,-0.069c-0.017,0.06 -0.117,0.115 -0.114,0.041c0.003,-0.074 0.063,-0.002 0.081,-0.092c0.003,-0.021 -0.191,-0.063 -0.164,0.104c0.016,0.088 -0.268,0.155 -0.248,0.174c0.021,0.019 0.088,0.051 0.052,0.047c-0.017,-0.002 -0.021,0.032 -0.022,0.065c-0.002,0.036 -0.003,0.073 -0.017,0.062c-0.073,-0.051 -0.106,0.008 -0.131,0.066c-0.032,0.073 -0.052,0.145 -0.123,0.011c-0.014,-0.027 0.054,0 0.065,-0.066c0.005,-0.032 -0.024,-0.032 -0.057,-0.009c-0.035,0.024 -0.063,0.062 -0.104,0.069c-0.041,0.007 0.12,-0.069 0.006,-0.112c-0.112,-0.044 -0.229,0.058 -0.242,0.071c-0.013,0.013 0.016,0.051 -0.021,0.068c-0.036,0.017 -0.224,0.069 -0.246,0.038c-0.011,-0.017 0.006,-0.017 0.032,-0.044c0.025,-0.028 -0.126,0.049 -0.114,0.098c0.006,0.024 0.047,0.014 0.081,0.005c0.035,-0.011 0.06,-0.019 0.019,0.011c-0.08,0.063 -0.144,0.23 -0.162,0.242zM37.946,47.113c-0.022,0.008 -0.047,0.019 -0.076,0.019c-0.005,-0.002 -0.008,-0.002 -0.013,-0.002c-0.033,-0.003 -0.032,-0.005 -0.049,-0.013c-0.016,-0.007 0.162,-0.014 0.138,-0.004zM37.976,47.304c0.101,-0.052 0.253,-0.093 0.302,-0.158c0.024,-0.033 0.028,-0.027 0.054,-0.087c0.03,-0.073 0.057,-0.096 0.074,-0.125c0.017,-0.03 0.027,-0.055 0.069,-0.087c0.043,-0.033 0.246,-0.101 0.193,-0.043c-0.052,0.057 -0.002,0.062 -0.051,0.114c-0.052,0.051 0.058,0.141 0.019,0.169c-0.039,0.03 -0.077,0.046 -0.106,0.063c-0.212,0.131 -0.254,0.035 -0.696,0.325c-0.005,0.003 -0.011,0.005 -0.017,0.006c-0.011,-0.003 -0.024,-0.009 -0.035,-0.025c-0.011,-0.013 0.066,-0.086 0.194,-0.152z" fill="url(#color-17)"></path><path d="M51.279,30.993c0.008,-0.046 -0.002,-0.095 0.002,-0.141c0.009,-0.117 0.011,-0.235 0.101,-0.33c0.025,-0.027 0.038,-0.081 0.032,-0.117c-0.032,-0.18 -0.027,-0.357 0.003,-0.535c0.005,-0.032 0.01,-0.069 -0.005,-0.095c-0.027,-0.044 -0.093,-0.073 -0.074,-0.122c0.017,-0.051 0.032,-0.093 0.051,-0.145c0.022,-0.062 -0.082,-0.09 -0.122,-0.136c-0.052,-0.06 -0.088,-0.126 -0.063,-0.207c0.032,-0.104 0.006,-0.193 -0.039,-0.286c-0.028,-0.057 -0.057,-0.129 -0.046,-0.188c0.022,-0.118 -0.003,-0.224 -0.038,-0.332c-0.058,-0.182 -0.076,-0.368 -0.071,-0.557c0.013,-0.047 -0.039,-0.066 -0.057,-0.101c-0.066,-0.128 -0.117,-0.262 -0.139,-0.409c-0.014,-0.092 -0.003,-0.191 -0.071,-0.27c-0.055,-0.065 -0.063,-0.142 -0.063,-0.226c0,-0.074 -0.003,-0.152 -0.021,-0.224c-0.06,-0.24 -0.182,-0.463 -0.227,-0.709c-0.006,-0.038 -0.039,-0.073 -0.063,-0.107c-0.022,-0.03 -0.101,-0.035 -0.076,-0.088c0.024,-0.055 0.104,-0.117 0.07,-0.164c-0.103,-0.171 -0.191,-0.346 -0.148,-0.507c-0.052,-0.156 -0.09,-0.272 -0.13,-0.387c-0.008,-0.022 -0.011,-0.047 -0.025,-0.066c-0.06,-0.084 -0.082,-0.178 -0.096,-0.278c-0.011,-0.082 -0.047,-0.145 -0.109,-0.205c-0.058,-0.057 -0.09,-0.141 -0.13,-0.215c-0.021,-0.039 -0.036,-0.082 -0.052,-0.122c-0.016,-0.041 -0.092,0.013 -0.142,0.019c-0.079,0.008 0.13,-0.219 0.101,-0.291c-0.046,-0.096 -0.092,-0.186 -0.177,-0.242c-0.099,-0.065 -0.081,-0.226 -0.117,-0.267c-0.071,-0.066 -0.085,-0.15 -0.09,-0.245c-0.003,-0.069 -0.051,-0.137 -0.087,-0.202c-0.027,-0.049 -0.066,-0.09 -0.101,-0.134c-0.057,-0.07 -0.115,-0.136 -0.172,-0.204c-0.009,-0.011 -0.024,-0.008 -0.028,-0.038c-0.003,-0.038 -0.008,-0.081 -0.011,-0.122c-0.008,-0.081 -0.096,-0.15 -0.139,-0.229c-0.022,-0.041 -0.051,-0.077 -0.077,-0.114c-0.057,-0.074 -0.117,-0.147 -0.175,-0.219c-0.073,-0.092 -0.139,-0.188 -0.216,-0.275c-0.047,-0.054 -0.081,-0.107 -0.101,-0.18c-0.035,-0.12 -0.017,-0.256 -0.106,-0.362c-0.044,-0.055 -0.084,-0.115 -0.118,-0.177c-0.066,-0.117 -0.137,-0.227 -0.268,-0.273c-0.051,-0.027 -0.099,-0.183 -0.207,-0.224c-0.087,-0.033 -0.152,-0.101 -0.178,-0.205c-0.016,-0.06 -0.057,-0.123 -0.106,-0.163c-0.06,-0.047 -0.139,-0.071 -0.232,-0.115c-0.092,-0.084 -0.002,-0.193 0.011,-0.309c-0.002,-0.055 -0.082,-0.139 -0.142,-0.166c-0.068,-0.024 -0.144,-0.047 -0.183,-0.098c-0.159,-0.204 -0.306,-0.417 -0.463,-0.624c-0.101,-0.131 -0.207,-0.262 -0.406,-0.245c-0.052,0.011 0.019,-0.107 -0.013,-0.136c-0.046,-0.032 -0.093,-0.063 -0.133,-0.09c-0.022,-0.014 -0.049,-0.003 -0.077,0.006c-0.033,0.013 -0.066,0.024 -0.085,-0.006c-0.017,-0.039 -0.032,-0.082 -0.051,-0.122c-0.024,-0.049 -0.038,-0.115 -0.079,-0.142c-0.219,-0.147 -0.365,-0.385 -0.611,-0.494c-0.021,-0.009 -0.032,-0.035 -0.051,-0.049c-0.125,-0.098 -0.248,-0.201 -0.377,-0.291c-0.118,-0.081 -0.268,-0.114 -0.354,-0.248c-0.025,-0.039 -0.081,-0.071 -0.13,-0.084c-0.099,-0.027 -0.171,-0.095 -0.254,-0.148c-0.194,-0.125 -0.393,-0.242 -0.587,-0.365c-0.139,-0.088 -0.284,-0.141 -0.452,-0.142c-0.044,0 -0.104,-0.033 -0.126,-0.071c-0.087,-0.145 -0.213,-0.235 -0.357,-0.309c-0.096,-0.051 -0.191,-0.103 -0.289,-0.148c-0.216,-0.101 -0.436,-0.201 -0.654,-0.3c-0.111,-0.051 -0.223,-0.098 -0.333,-0.15c-0.073,-0.035 -0.141,-0.079 -0.213,-0.112c-0.055,-0.024 -0.111,-0.046 -0.166,-0.066c-0.147,-0.055 -0.294,-0.107 -0.418,-0.21c-0.017,-0.014 -0.043,-0.022 -0.065,-0.027c-0.141,-0.041 -0.265,-0.103 -0.317,-0.261c-0.019,-0.062 -0.358,-0.103 -0.534,-0.152c-0.104,-0.028 -0.207,-0.071 -0.313,-0.082c-0.188,-0.021 -0.362,-0.107 -0.554,-0.104c-0.085,0.002 -0.172,-0.024 -0.259,-0.036c-0.063,-0.009 -0.136,-0.024 -0.182,-0.065c-0.15,-0.134 -0.33,-0.159 -0.516,-0.177c-0.136,-0.013 -0.27,-0.035 -0.406,-0.047c-0.103,-0.011 -0.207,-0.017 -0.309,-0.019c-0.055,-0.002 -0.111,0.016 -0.166,0.022c-0.051,0.006 -0.111,0.03 -0.148,0.011c-0.125,-0.062 -0.259,-0.049 -0.384,-0.077c-0.197,-0.046 -0.382,-0.025 -0.573,0.016c-0.049,0.011 -0.107,0.021 -0.152,0.006c-0.183,-0.057 -0.371,-0.057 -0.559,-0.077c-0.212,-0.024 -0.412,-0.005 -0.576,0.039c-0.03,0.013 -0.106,-0.017 -0.186,-0.046c-0.076,-0.028 -0.155,-0.055 -0.212,-0.049c-0.123,0.014 -0.242,0.008 -0.363,0.005c-0.224,-0.006 -0.45,-0.019 -0.676,-0.028c-0.212,-0.008 -0.422,-0.016 -0.633,-0.022c-0.193,-0.006 -0.387,-0.009 -0.581,-0.013c-0.088,-0.002 -0.177,-0.005 -0.265,0c-0.183,0.01 -0.362,0.041 -0.549,0.017c-0.147,-0.019 -0.295,-0.052 -0.445,-0.052c-0.074,-0.006 -0.163,0.005 -0.249,0.039c-0.009,0.003 -0.019,0.002 -0.028,0.002c-0.126,-0.016 -0.202,0.058 -0.268,0.15c-0.019,0.027 -0.033,0.055 -0.051,0.084c-0.043,0.014 -0.081,0.025 -0.118,0.014c-0.021,-0.006 -0.003,0.008 -0.06,-0.046c-0.039,-0.036 0.006,-0.033 0.047,-0.03c0.021,0.002 0.039,0.003 0.049,-0.002c0.041,-0.017 -0.049,-0.013 -0.073,-0.017c-0.107,-0.016 -0.207,0.005 -0.305,0.032c-0.038,0.032 -0.073,0.062 -0.088,0.074c-0.103,-0.01 -0.189,-0.041 -0.256,-0.017c-0.137,0.049 -0.281,0.076 -0.428,0.079c-0.017,0 -0.036,0.011 -0.055,0.016c-0.03,0.036 -0.06,0.071 -0.087,0.103c-0.021,0.003 -0.035,0.011 -0.047,0.009c-0.219,-0.038 -0.404,0.057 -0.587,0.155c-0.213,0.114 -0.436,0.196 -0.684,0.216c-0.051,0.009 -0.081,0.068 -0.123,0.104c-0.057,0.047 -0.298,0.047 -0.448,0.003c-0.024,-0.006 -0.055,0.008 -0.082,0.014c-0.109,0.027 -0.216,0.06 -0.327,0.081c-0.076,0.014 -0.144,0.038 -0.202,0.093c-0.073,0.066 -0.148,0.126 -0.24,0.205c-0.021,0.022 -0.065,0.014 -0.106,0.005c-0.033,-0.008 -0.066,-0.014 -0.085,-0.005c-0.057,0.022 -0.107,0.047 -0.163,0.062c-0.093,0.025 -0.188,0.046 -0.281,0.068c-0.028,0.009 -0.022,0.03 -0.062,0.025c-0.046,-0.006 -0.06,-0.052 -0.082,-0.032c-0.09,0.084 -0.199,0.112 -0.324,0.085c-0.058,-0.011 -0.104,0.022 -0.15,0.062c-0.095,0.082 -0.191,0.172 -0.308,0.161c-0.074,0.046 -0.126,0.09 -0.185,0.114c-0.063,0.025 -0.099,0.065 -0.128,0.123c-0.025,0.052 -0.06,0.101 -0.087,0.148c-0.032,0.046 -0.161,-0.013 -0.231,-0.013c-0.163,-0.002 -0.306,0.051 -0.428,0.156c-0.057,0.049 -0.088,0.107 -0.088,0.185c0,0.055 -0.009,0.111 -0.013,0.166c-0.005,0.035 -0.071,0.03 -0.101,0.038c-0.093,0.019 -0.177,0.071 -0.262,0.095c-0.15,0.041 -0.265,0.115 -0.377,0.216c-0.065,0.057 -0.159,0.079 -0.237,0.123c-0.096,0.055 -0.27,0.137 -0.283,0.177c-0.009,0.036 -0.017,0.071 -0.025,0.104c-0.003,0.017 -0.027,0.005 -0.051,-0.006c-0.024,-0.011 -0.046,-0.024 -0.049,-0.006c-0.013,0.051 -0.005,0.092 -0.032,0.126c-0.058,0.068 -0.123,0.107 -0.193,0.122c-0.019,0.003 -0.043,-0.002 -0.065,-0.006c-0.03,-0.006 -0.058,-0.013 -0.076,0.002c-0.131,0.087 -0.248,0.167 -0.297,0.311c-0.021,0.057 -0.074,0.082 -0.134,0.092c-0.046,0.008 -0.096,0.008 -0.139,0.027c-0.106,0.05 -0.221,0.093 -0.229,0.24c0,0.008 -0.01,0.014 -0.016,0.024c-0.008,0.017 -0.024,0.008 -0.039,-0.002c-0.017,-0.011 -0.036,-0.021 -0.047,0.002c-0.011,0.017 -0.028,0.036 -0.036,0.057c-0.058,0.147 -0.166,0.226 -0.319,0.275c-0.122,0.039 -0.235,0.115 -0.341,0.191c-0.134,0.095 -0.256,0.207 -0.382,0.313c-0.145,0.12 -0.295,0.234 -0.433,0.362c-0.175,0.164 -0.349,0.33 -0.508,0.51c-0.077,0.087 -0.182,0.15 -0.245,0.245c-0.024,0.035 -0.016,0.099 -0.047,0.117c-0.193,0.09 -0.248,0.262 -0.286,0.268c-0.114,0.017 -0.178,0.087 -0.243,0.166c-0.106,0.131 -0.219,0.254 -0.33,0.382c-0.093,0.111 -0.188,0.223 -0.276,0.338c-0.065,0.084 -0.123,0.174 -0.196,0.278c-0.008,0.014 -0.017,0.01 -0.028,0.005c-0.013,-0.006 -0.027,-0.011 -0.046,0.011c-0.11,0.164 -0.221,0.327 -0.333,0.493c-0.025,0.033 0.024,0.063 0.039,0.103c0.014,0.038 -0.025,0.03 -0.068,0.022c-0.033,-0.006 -0.066,-0.013 -0.076,0.002c-0.046,0.063 -0.118,0.125 -0.141,0.201c-0.06,0.204 -0.218,0.338 -0.328,0.504c-0.12,0.18 -0.24,0.36 -0.368,0.534c-0.106,0.142 -0.186,0.303 -0.311,0.436c-0.101,0.109 -0.188,0.238 -0.254,0.371c-0.06,0.12 -0.115,0.237 -0.194,0.291c-0.073,0.118 -0.115,0.207 -0.175,0.284c-0.156,0.201 -0.276,0.415 -0.332,0.665c-0.038,0.169 -0.112,0.328 -0.133,0.504c-0.011,0.092 -0.058,0.177 -0.088,0.265c-0.038,0.112 -0.111,0.224 -0.101,0.335c0.024,0.275 -0.126,0.254 -0.111,0.325c0.044,0.177 -0.055,0.321 -0.115,0.471c-0.046,0.115 -0.063,0.224 -0.016,0.339h-0.006c0.008,0.055 0.017,0.111 0.027,0.172c-0.107,0.131 -0.218,0.261 -0.238,0.459c0.027,0.077 -0.008,0.163 -0.058,0.246c-0.066,0.111 -0.098,0.234 -0.115,0.365c-0.008,0.038 0.057,0.027 0.093,0.044c0.052,0.024 -0.112,0.049 -0.12,0.092c-0.081,0.423 -0.077,0.84 0.039,1.252c0.014,0.038 0.043,0.027 0.068,0.017c0.013,-0.005 0.025,-0.011 0.036,-0.01c0.043,0.003 -0.005,0.101 -0.039,0.147c-0.079,0.107 -0.161,0.213 -0.189,0.352c-0.036,0.178 0.017,0.347 0.028,0.519c0.006,0.082 0.009,0.156 -0.028,0.232c-0.021,0.039 -0.032,0.09 -0.028,0.136c0.008,0.136 0.025,0.272 0.038,0.407c0.011,0.131 0.032,0.262 0.027,0.393c-0.005,0.202 -0.032,0.403 -0.044,0.605c-0.005,0.074 0.002,0.15 0.008,0.226c0.008,0.079 0.03,0.207 0.038,0.251c0.008,0.046 0.073,0.164 0.107,0.257c0.052,0.136 0.101,0.273 0.153,0.409c0.027,0.071 0.06,0.137 0.084,0.21c0.085,0.265 0.166,0.531 0.254,0.796c0.052,0.159 0.101,0.32 0.111,0.491c0.006,0.107 0.044,0.212 0.051,0.319c0.006,0.134 0.044,0.257 0.093,0.381c0.024,0.06 0.039,0.126 0.046,0.193c0.005,0.058 0.002,0.122 -0.017,0.177c-0.03,0.088 -0.073,0.174 -0.112,0.259c-0.03,0.062 -0.028,0.117 0.014,0.171c0.024,0.03 0.041,0.065 0.066,0.092c0.12,0.129 0.136,0.292 0.159,0.455c0.019,0.134 0.057,0.265 0.03,0.403c-0.003,0.013 0.008,0.027 0.011,0.041c0.024,0.12 0.043,0.24 0.068,0.358c0.027,0.128 0.047,0.259 0.145,0.358c0.009,0.009 0.025,0.041 0.028,0.062c0.003,0.022 -0.063,0.057 -0.058,0.084c0.005,0.027 0.084,0.05 0.101,0.073c0.017,0.022 0.008,0.092 0.024,0.128c0.057,0.123 0.107,0.251 0.182,0.363c0.038,0.057 0.063,0.112 0.071,0.174c0.005,0.035 -0.021,0.093 -0.006,0.114c0.212,0.253 0.338,0.45 0.508,0.761c0,-0.006 0.039,0.07 0.044,0.122c0.005,0.051 0.109,0.106 0.188,0.115c0.008,0.002 0.079,0.103 0.025,0.085c-0.054,-0.017 -0.145,-0.009 -0.136,0.025c0.009,0.033 0.024,0.279 0.084,0.295c0.062,0.017 0.133,0.035 0.115,0.068c-0.006,0.013 -0.017,0.011 -0.03,0.011c-0.019,-0.002 -0.038,-0.003 -0.033,0.057c0.006,0.096 0.141,0.106 0.155,0.129c0.014,0.024 0.063,0.082 0.043,0.085c-0.016,0.003 -0.052,0.041 -0.115,0.019c-0.021,-0.006 -0.074,-0.09 -0.06,0.011c0.014,0.099 0.115,0.281 0.23,0.369c0.074,0.188 0.392,0.584 0.458,0.567c0.066,-0.017 0.136,-0.032 0.112,-0.009c-0.025,0.022 -0.054,0.136 0.011,0.167c0.066,0.032 0.213,0.175 0.317,0.3c0.194,0.234 0.357,0.496 0.36,0.442c0.005,-0.087 0.041,-0.117 0.066,-0.186c0.017,0.041 0.035,0.065 0.035,0.087c0,0.109 0.047,0.194 0.136,0.25c0.09,0.057 0.111,0.085 0.156,0.21c0.046,0.126 0.256,0.137 0.291,0.142c0.035,0.005 0.183,0.358 0.172,0.395c-0.011,0.035 0.099,0.111 0.148,0.156c0.06,0.057 0.126,0.109 0.19,0.164c0.049,0.043 0.104,0.081 0.145,0.13c0.092,0.107 0.172,0.223 0.26,0.332c0.077,0.093 0.158,0.185 0.238,0.276c0.013,0.014 0.024,0.035 0.039,0.033c0.017,-0.002 0.07,0 0.096,-0.006c0.027,-0.006 -0.024,0.107 0.014,0.115c0.038,0.008 0.144,0.057 0.15,0.082c0.005,0.025 0.06,0.204 0.186,0.21c0.003,0.036 0.006,0.063 0.008,0.087c0.133,0.114 0.257,0.227 0.39,0.332c0.076,0.062 0.136,0.131 0.172,0.219c0.003,0.008 0.013,0.014 0.024,0.025c0.03,0.009 0.065,0.021 0.099,0.032c0.025,0.112 0.09,0.199 0.172,0.27c0.071,0.06 0.148,0.114 0.219,0.175c0.079,0.068 0.15,0.142 0.227,0.21c0.088,0.077 0.226,0.189 0.21,0.177c-0.016,-0.013 0.027,0.052 0.051,0.06c0.024,0.008 0.118,0.036 0.147,0.047c0.029,0.011 0.125,0.248 0.148,0.257c0.023,0.009 0.139,0.073 0.202,0.126c0.224,0.194 0.395,0.507 0.452,0.515c0.071,0.008 0.319,0.245 0.459,0.376c0.038,0.035 0.071,0.074 0.107,0.111c0.148,0.148 0.366,0.218 0.469,0.418c0.009,0.019 0.038,0.027 0.057,0.043c0.058,0.052 0.122,0.101 0.174,0.159c0.093,0.101 0.178,0.208 0.327,0.231c0.036,0.006 0.073,0.025 0.103,0.047c0.117,0.077 0.251,0.101 0.387,0.123c0.156,0.027 0.311,0.065 0.466,0.104c0.223,0.058 0.444,0.126 0.668,0.183c0.047,0.013 0.104,0.009 0.152,-0.002c0.152,-0.036 0.188,-0.021 0.281,0.114c0.028,0.039 0.071,0.09 0.114,0.095c0.12,0.016 0.249,0.141 0.284,0.145c0.035,0.005 0.237,0.033 0.349,0.047c0.069,0.01 0.128,0.038 0.164,0.098c0.069,0.111 0.172,0.171 0.298,0.197c0.036,0.008 0.071,0.024 0.103,0.035c0.032,0.011 0.039,0.118 0.073,0.147c0.032,0.028 0.216,0.095 0.328,0.125c0.159,0.041 0.322,0.066 0.483,0.098c0.032,0.005 0.066,0.003 0.098,0.003c0.207,-0.009 0.414,-0.019 0.62,-0.027c0.104,-0.003 0.208,-0.003 0.311,-0.003c0.027,0 0.055,0.003 0.084,0.005c0.057,0.005 0.115,0.01 0.171,-0.005c0.084,-0.021 0.164,-0.085 0.212,-0.077c0.049,0.006 0.009,-0.006 -0.039,-0.074c-0.049,-0.068 0.159,-0.047 0.166,-0.013c0.027,0.156 -0.077,0.156 -0.039,0.175c0.038,0.019 0.292,0.09 0.447,0.028c0.044,-0.017 0.101,-0.016 0.15,-0.011c0.088,0.009 0.175,0.011 0.262,0h0.013v-0.011c0.073,-0.009 0.144,-0.025 0.213,-0.054c0.093,-0.038 0.175,-0.047 0.272,-0.036c0.106,0.011 0.216,0.005 0.322,-0.011c0.101,-0.016 0.199,-0.055 0.298,-0.079c0.128,-0.03 0.26,-0.043 0.371,-0.126c0.024,-0.019 0.062,-0.021 0.093,-0.027c0.156,-0.033 0.341,-0.049 0.434,-0.09c0.093,-0.043 0.276,-0.205 0.423,-0.256c0.049,-0.017 0.13,-0.014 0.199,-0.011c0.074,0.003 0.136,0.006 0.129,-0.014c-0.011,-0.041 0.035,-0.093 0.065,-0.13c0.073,-0.087 0.185,-0.134 0.254,-0.164c0.098,-0.046 0.194,-0.022 0.145,0.224c-0.025,0.088 0.142,-0.183 0.148,-0.235c0.006,-0.052 -0.047,-0.155 -0.041,-0.207c0.008,-0.051 0.313,-0.171 0.518,-0.31c0.002,0.005 0.032,-0.017 0.062,-0.041c0.028,-0.022 0.058,-0.046 0.06,-0.041c0.057,-0.016 0.118,-0.024 0.171,-0.047c0.009,-0.003 0.022,-0.017 0.036,-0.033c0.006,-0.013 0.013,-0.022 0.017,-0.035c0.038,-0.081 0.204,-0.365 0.254,-0.45c0.049,-0.087 0.387,-0.281 0.399,-0.393c0.013,-0.112 0.24,-0.352 0.24,-0.352c0,0 -0.008,-0.324 0.021,-0.407c0.021,-0.058 0.041,-0.125 0.039,-0.156c-0.003,-0.06 0.041,-0.164 0.071,-0.243c0.022,-0.057 0.051,-0.112 0.082,-0.164c0.088,-0.155 0.09,-0.411 0.049,-0.475c-0.041,-0.065 -0.191,-0.142 -0.283,-0.208c-0.122,-0.087 -0.156,-0.204 -0.125,-0.349c0.003,-0.013 0.005,-0.027 0.008,-0.041c0.022,-0.066 0.017,-0.057 0.047,-0.082c0.03,-0.025 0.044,-0.054 0.033,-0.073c-0.011,-0.019 -0.021,-0.024 -0.038,-0.014c-0.011,0.005 -0.013,0.011 -0.019,0.014c0.005,-0.039 0.009,-0.073 0.011,-0.088c0.005,-0.035 -0.013,-0.118 -0.088,-0.171c0.003,-0.016 -0.011,-0.016 -0.021,-0.016c-0.003,0 -0.006,0 -0.008,-0.002c-0.01,-0.005 -0.032,-0.011 -0.03,-0.043c0.002,-0.022 -0.013,-0.022 -0.027,-0.021c-0.005,0 -0.011,0 -0.016,0c-0.017,-0.003 -0.043,0 -0.054,-0.022c-0.006,-0.013 -0.002,-0.017 0.002,-0.017h-0.002c-0.011,0 -0.035,0.011 -0.051,0.041c-0.017,0.03 -0.047,0.036 -0.076,0.036c-0.076,-0.002 -0.145,-0.008 -0.182,-0.046c-0.079,-0.079 -0.129,-0.178 -0.189,-0.273c-0.069,-0.111 -0.142,-0.147 -0.272,-0.13c-0.036,0.006 -0.074,0.011 -0.112,0.014c-0.017,0.002 -0.017,0.002 -0.071,-0.009c-0.063,-0.013 -0.107,-0.043 -0.15,-0.071c-0.017,-0.011 -0.006,-0.028 0.03,-0.028c0.036,0 0.002,-0.011 0,-0.03c-0.002,-0.011 -0.002,-0.01 -0.002,-0.008c0,0.002 0.002,0.003 0.002,-0.002c0,-0.009 -0.036,-0.011 -0.062,-0.006c-0.025,0.005 -0.082,0.019 -0.126,0.013c-0.101,-0.005 -0.27,-0.043 -0.3,-0.068c-0.03,-0.025 -0.073,-0.172 -0.112,-0.207c-0.039,-0.035 -0.354,-0.032 -0.526,-0.066c-0.171,-0.033 -0.335,-0.09 -0.501,-0.147c-0.092,0.005 -0.178,0.035 -0.234,0.142c-0.126,-0.186 -0.302,-0.107 -0.456,-0.096c-0.12,0.01 -0.234,0.006 -0.346,-0.036c-0.041,-0.016 -0.095,-0.019 -0.137,-0.005c-0.137,0.044 -0.444,0.092 -0.411,0.15c0.032,0.058 0.002,0.103 -0.011,0.145c-0.013,0.043 -0.049,0.101 -0.073,0.126c-0.024,0.025 -0.155,0 -0.208,-0.046c-0.054,-0.046 -0.013,-0.158 -0.017,-0.221c-0.159,0.006 -0.305,0.019 -0.448,0.017c-0.161,-0.003 -0.324,-0.202 -0.308,-0.262c0.011,-0.041 0.081,-0.079 0.152,-0.12c0.06,-0.035 0.058,-0.014 0.099,-0.033c0.041,-0.019 0.046,-0.03 0.109,-0.052c0.065,-0.022 0.145,-0.003 0.171,0.01c0.026,0.013 -0.013,-0.07 -0.055,-0.087c-0.043,-0.017 -0.093,-0.024 -0.153,0c-0.06,0.024 -0.155,0.025 -0.199,0.017c-0.038,-0.009 -0.082,-0.014 -0.131,-0.017c-0.133,-0.011 -0.185,0.224 -0.254,0.352c-0.177,0.051 -0.37,-0.082 -0.411,-0.279c-0.041,-0.197 -0.414,-0.267 -0.472,-0.314c-0.058,-0.046 -0.041,0.12 -0.049,0.172c-0.011,0.073 -0.046,0.126 -0.115,0.147c-0.158,0.049 -0.314,0.101 -0.485,0.044c-0.057,-0.019 -0.099,-0.043 -0.134,-0.093c-0.039,-0.057 -0.092,-0.104 -0.141,-0.155c-0.046,-0.046 -0.092,-0.093 -0.134,-0.144c-0.093,-0.054 -0.191,-0.096 -0.303,-0.092c-0.032,0.002 -0.074,-0.002 -0.095,-0.022c-0.125,-0.128 -0.306,-0.15 -0.448,-0.259c-0.175,-0.133 -0.36,-0.254 -0.531,-0.396c-0.231,-0.193 -0.461,-0.388 -0.685,-0.589c-0.112,-0.099 -0.219,-0.207 -0.317,-0.319c-0.123,-0.142 -0.24,-0.289 -0.354,-0.441c-0.073,-0.096 -0.145,-0.186 -0.257,-0.201c-0.057,-0.074 -0.101,-0.134 -0.152,-0.199c-0.054,-0.163 -0.134,-0.313 -0.332,-0.365c-0.006,-0.014 -0.021,-0.032 -0.022,-0.047c-0.005,-0.109 -0.06,-0.194 -0.144,-0.248c-0.104,-0.066 -0.163,-0.166 -0.224,-0.265c-0.03,-0.047 -0.073,-0.084 -0.109,-0.126c-0.017,-0.011 -0.044,0.006 -0.074,0.024c-0.028,0.017 -0.058,0.035 -0.077,0.024c-0.169,-0.088 -0.291,-0.235 -0.412,-0.376c-0.117,-0.136 -0.213,-0.287 -0.324,-0.428c-0.058,-0.074 -0.129,-0.137 -0.186,-0.213c-0.032,-0.043 -0.063,-0.098 -0.066,-0.148c-0.005,-0.081 -0.032,-0.144 -0.084,-0.202c-0.041,-0.047 -0.073,-0.104 -0.12,-0.153c-0.032,-0.027 -0.014,0.062 -0.022,0.093c-0.025,0.096 -0.051,0.19 0.017,0.286c0.033,0.039 -0.06,0.15 -0.153,0.178c-0.032,0.005 -0.049,-0.025 -0.068,-0.044c-0.201,-0.205 -0.404,-0.411 -0.6,-0.621c-0.167,-0.178 -0.332,-0.362 -0.488,-0.549c-0.12,-0.144 -0.189,-0.314 -0.188,-0.507c0.002,-0.122 0,-0.243 0,-0.363c-0.034,0.023 -0.034,0.023 -0.078,0.192c-0.014,0.039 -0.039,0.032 -0.065,0.025c-0.013,-0.005 -0.024,-0.008 -0.035,-0.006c-0.028,0.014 -0.032,-0.036 -0.033,-0.047c-0.014,-0.126 -0.071,-0.229 -0.142,-0.333c-0.049,-0.071 -0.076,-0.164 -0.09,-0.251c-0.06,-0.362 -0.114,-0.726 -0.169,-1.089c-0.003,-0.019 -0.006,-0.038 -0.002,-0.057c0.047,-0.204 -0.017,-0.404 -0.016,-0.605c0.003,-0.287 0.017,-0.575 0.027,-0.862c0.002,-0.047 0.008,-0.095 0.011,-0.141c0.011,-0.164 0.025,-0.328 0.036,-0.493c0.003,-0.044 -0.005,-0.087 -0.008,-0.141c-0.008,-0.052 -0.06,-0.039 -0.106,-0.025c-0.022,0.006 -0.043,0.013 -0.055,0.013c-0.092,-0.014 -0.074,-0.136 -0.055,-0.21c0.019,-0.077 0.049,-0.153 0.076,-0.227c0.024,-0.068 0.044,-0.134 -0.008,-0.218c-0.051,-0.068 -0.09,0.038 -0.134,0.058c-0.106,0.051 -0.212,0.103 -0.319,0.15c-0.131,0.06 -0.238,0.019 -0.33,-0.082c-0.028,-0.032 -0.055,-0.063 -0.062,-0.071c-0.073,-0.107 -0.017,-0.347 -0.017,-0.507c0,-0.054 0.019,-0.112 0.041,-0.163c0.049,-0.112 0.106,-0.221 0.158,-0.332c0.019,-0.041 0.099,-0.117 0.052,-0.145c-0.062,-0.038 -0.111,-0.082 -0.171,-0.106c-0.118,-0.046 -0.186,-0.131 -0.208,-0.248c-0.025,-0.137 -0.051,-0.279 -0.049,-0.418c0.005,-0.193 0.033,-0.385 0.054,-0.576c0.016,-0.15 0.036,-0.298 0.052,-0.448c0.017,-0.156 0.025,-0.193 0.131,-0.199c0.01,0 0.024,0.003 0.038,0.008c0.028,0.008 0.058,0.016 0.065,-0.01c0.025,-0.114 0.082,-0.223 0.079,-0.347c-0.005,-0.227 0.008,-0.452 0.074,-0.673c0.011,-0.035 0.01,-0.074 0.011,-0.112c0.002,-0.071 0.003,-0.142 -0.002,-0.212c-0.025,-0.295 0.057,-0.57 0.163,-0.84c0.076,-0.191 0.142,-0.388 0.219,-0.579c0.06,-0.148 0.144,-0.287 0.194,-0.439c0.054,-0.155 0.155,-0.279 0.234,-0.417c0.047,-0.082 0.129,-0.145 0.199,-0.216c0.049,-0.051 0.101,-0.096 0.153,-0.145c0.027,-0.025 0.054,-0.055 0.085,-0.073c0.167,-0.093 0.275,-0.24 0.374,-0.396c0.039,-0.063 0.087,-0.122 0.131,-0.182c0.039,-0.052 0.092,-0.099 0.118,-0.158c0.051,-0.106 0.133,-0.182 0.213,-0.26c0.128,-0.125 0.251,-0.253 0.377,-0.379c0.014,-0.014 0.033,-0.025 0.038,-0.041c0.076,-0.193 0.275,-0.25 0.414,-0.371c0.051,-0.043 0.129,-0.052 0.199,-0.081c0.081,-0.204 0.261,-0.324 0.409,-0.474c0.06,-0.06 0.128,-0.112 0.189,-0.169c0.104,-0.096 0.193,-0.208 0.322,-0.275c0.044,-0.022 0.076,-0.071 0.115,-0.104c0.054,-0.046 0.107,-0.092 0.166,-0.131c0.112,-0.077 0.226,-0.15 0.339,-0.226c0.205,-0.139 0.412,-0.279 0.617,-0.422c0.221,-0.153 0.436,-0.314 0.662,-0.463c0.122,-0.081 0.254,-0.141 0.384,-0.21c0.058,-0.032 0.115,-0.065 0.174,-0.096c0.032,-0.022 -0.038,-0.114 0.011,-0.142c0.038,-0.027 0.076,-0.065 0.12,-0.085c0.235,-0.109 0.471,-0.221 0.711,-0.317c0.139,-0.055 0.289,-0.084 0.434,-0.125c0.058,-0.017 0.12,-0.03 0.174,-0.057c0.215,-0.107 0.423,-0.229 0.641,-0.33c0.183,-0.085 0.374,-0.155 0.565,-0.218c0.03,-0.01 0.071,-0.002 0.111,0.006c0.054,0.009 0.104,0.019 0.123,-0.009c0.044,-0.095 0.144,-0.122 0.243,-0.155c0.204,-0.07 0.414,-0.13 0.587,-0.268c0.039,-0.032 0.126,-0.047 0.137,-0.071c0.008,-0.017 0.021,-0.035 0.019,-0.052c-0.006,-0.153 0.082,-0.234 0.205,-0.309c0.172,-0.106 0.36,-0.13 0.553,-0.147c0.095,-0.008 0.188,-0.014 0.281,-0.022c0.019,-0.002 0.038,-0.006 0.057,-0.003c0.213,0.055 0.422,-0.009 0.632,-0.019c0.065,-0.003 0.133,0.005 0.193,0.027c0.036,0.013 0.117,0.069 0.093,0.093c-0.098,0.101 -0.273,0.058 -0.311,0.101c-0.06,0.057 -0.117,0.111 -0.183,0.174c-0.008,0.013 -0.032,0.002 -0.055,-0.011c-0.025,-0.013 -0.052,-0.025 -0.06,-0.008c-0.008,0.021 -0.024,0.06 -0.051,0.122c-0.017,0.043 -0.068,-0.12 -0.093,-0.136c-0.07,-0.049 -0.128,-0.088 -0.202,-0.141c-0.066,-0.022 -0.147,0.002 -0.229,0.025c-0.074,0.022 -0.152,0.036 -0.248,0.032c-0.238,0.021 -0.126,0.111 -0.095,0.155c0.055,0.077 0.115,0.087 0.185,0.069c0.24,-0.058 0.406,0.041 0.464,0.279c0.006,0.027 0.011,0.054 0.036,0.082c0.033,0.036 0.013,-0.178 0.046,-0.185c0.12,0.006 0.06,0.156 0.106,0.153c0.011,-0.002 0.024,0.003 0.038,0.005c0.028,0.008 0.057,0.014 0.066,-0.016c0.022,-0.06 0.039,-0.107 0.057,-0.156c0.011,-0.027 0.019,0.002 0.028,0.003c0.021,0.002 0.003,0.099 0.032,0.103c0.104,0.014 0.202,-0.028 0.298,-0.057c0.272,-0.081 0.54,-0.166 0.812,-0.249c0.104,-0.032 0.205,-0.068 0.311,-0.096c0.058,-0.016 0.216,0.019 0.177,0.051l-0.316,0.317c-0.021,0.019 0.003,0.038 0.027,0.035c0.028,-0.006 0.047,-0.019 0.073,-0.032c0.079,-0.039 0.156,-0.085 0.235,-0.128c0.278,-0.152 0.586,-0.169 0.891,-0.201c0.208,-0.022 0.415,-0.013 0.624,-0.003c0.172,0.008 0.346,0.016 0.519,0.005c0.171,-0.009 0.341,-0.008 0.51,0.003c0.144,0.009 0.287,0.038 0.431,0.058c0.041,0.006 0.085,0.021 0.125,0.013c0.101,-0.021 0.196,-0.005 0.292,0.024c0.099,0.032 0.202,0.047 0.302,0.079c0.076,0.024 0.15,0.055 0.221,0.093c0.062,0.032 0.104,0.084 0.057,0.182c0.088,-0.03 0.144,-0.054 0.213,-0.077c0.017,-0.003 -0.003,0.021 0.011,0.024c0.095,0.019 0.19,0.038 0.283,0.058c0.096,0.021 0.193,0.043 0.289,0.069c0.073,0.022 0.12,0.073 0.139,0.158c0.005,0.03 -0.041,0.098 -0.027,0.115c0.009,0.011 0.006,0.024 0.028,0.032c0.051,0.021 0.101,0.043 0.15,0.065c0.044,0.021 0.088,0.039 0.134,0.058c0.052,0.022 0.107,0.035 0.156,0.063c0.264,0.145 0.526,0.292 0.786,0.444c0.082,0.047 0.156,0.107 0.234,0.158c0.043,0.028 0.088,0.052 0.134,0.079c0.035,0.017 0.077,-0.073 0.118,-0.074c0.199,0.005 0.371,0.055 0.526,0.185c0.099,0.084 0.231,0.128 0.341,0.197c0.141,0.087 0.275,0.183 0.412,0.275c0.071,0.047 0.139,0.099 0.215,0.137c0.245,0.122 0.426,0.314 0.579,0.531c0.136,0.194 0.317,0.344 0.456,0.534c0.011,0.014 0.028,0.022 0.058,0.017c0.021,0 -0.028,-0.036 -0.044,-0.054c-0.107,-0.133 -0.215,-0.267 -0.327,-0.396c-0.129,-0.152 -0.234,-0.317 -0.308,-0.5c-0.019,-0.054 0.144,-0.106 0.261,-0.06c0.164,0.066 0.281,0.186 0.382,0.325c0.107,0.148 0.216,0.297 0.324,0.445c0.038,0.054 0.074,0.109 0.112,0.163c0.011,0.016 0.021,0.033 0.032,0.047c0.246,0.27 0.399,0.602 0.595,0.905c0.074,0.114 0.137,0.234 0.204,0.354c0.055,0.103 0.054,0.104 0.159,0.15c0.032,0.011 -0.038,0.073 -0.025,0.099c0.133,0.221 0.302,0.411 0.505,0.587c0.033,0.03 0.104,0.041 0.103,0.085c-0.003,0.161 0.093,0.295 0.215,0.42c0.186,0.191 0.292,0.425 0.347,0.685c0.024,0.115 0.058,0.231 0.107,0.335c0.114,0.232 0.167,0.48 0.237,0.725c0.017,0.058 0.028,0.115 0.081,0.159c0.027,0.022 0.041,0.062 0.057,0.095c0.039,0.085 0.074,0.172 0.112,0.259c0.009,0.022 0.021,0.043 0.025,0.066c0.033,0.161 0.052,0.325 0.101,0.483c0.065,0.213 0.111,0.423 0.081,0.647c-0.003,0.032 0.008,0.065 0.014,0.096c0.032,0.142 0.068,0.284 0.099,0.426c0.022,0.101 0.035,0.201 0.041,0.305c0.013,0.215 0.057,0.428 0.093,0.641c0.03,0.166 0.099,0.325 0.093,0.499c-0.002,0.032 0.01,0.066 0.019,0.096c0.049,0.142 0.096,0.284 0.148,0.433c0.022,0.065 0.087,0.164 0.068,0.199c-0.068,0.115 -0.036,0.248 0,0.379c0.008,0.024 0.06,0.044 0.057,0.076c-0.014,0.044 -0.044,0.044 -0.039,0.073c0.011,0.05 0.027,0.101 0.032,0.152c0.005,0.041 0.009,0.088 -0.008,0.123c-0.085,0.172 -0.084,0.355 -0.077,0.54c0.002,0.046 0.006,0.093 0.009,0.153c0.003,0.035 0.052,-0.008 0.096,-0.051c0.043,-0.041 0.082,-0.082 0.079,-0.055c-0.022,0.186 -0.027,0.358 0.022,0.535c0.041,0.152 0.036,0.317 0.008,0.477c-0.013,0.074 -0.027,0.153 -0.014,0.224c0.038,0.215 -0.033,0.409 -0.098,0.606c-0.027,0.081 -0.06,0.159 -0.076,0.243c-0.014,0.071 -0.006,0.147 -0.013,0.221c-0.013,0.171 0.024,0.344 -0.041,0.515c-0.158,0.414 -0.295,0.835 -0.459,1.247c-0.125,0.313 -0.224,0.628 -0.305,0.954c-0.025,0.104 -0.076,0.202 -0.112,0.305c-0.065,0.182 -0.125,0.365 -0.191,0.545c-0.043,0.115 -0.084,0.232 -0.142,0.339c-0.136,0.248 -0.275,0.494 -0.423,0.734c-0.099,0.159 -0.216,0.306 -0.287,0.485c-0.036,0.09 -0.093,0.177 -0.156,0.249c-0.174,0.197 -0.306,0.426 -0.496,0.616c-0.12,0.12 -0.199,0.284 -0.297,0.428c-0.013,0.019 -0.021,0.044 -0.036,0.06c-0.185,0.193 -0.371,0.385 -0.556,0.578c-0.024,0.024 -0.043,0.051 -0.062,0.077c-0.044,0.065 -0.103,0.148 -0.137,0.189c-0.033,0.041 -0.104,0.196 -0.207,0.256c-0.039,0.022 -0.073,0.06 -0.104,0.095c-0.131,0.141 -0.373,0.36 -0.385,0.37c-0.013,0.008 -0.016,0.024 0.006,0.025c0.022,0.003 0.038,0.098 0.013,0.076c-0.013,-0.011 -0.028,-0.008 -0.041,-0.005c-0.013,0.003 -0.024,0.006 -0.022,-0.008c0.002,-0.025 0.009,-0.06 -0.008,-0.044c-0.016,0.016 -0.066,0.058 -0.101,0.095c-0.035,0.037 -0.036,0.038 -0.021,0.049c0.063,0.047 -0.103,0.073 -0.06,0.057c0.044,-0.017 0.014,-0.033 -0.005,-0.024c-0.019,0.01 -0.096,0.058 -0.109,0.071c-0.049,0.049 -0.126,0.112 -0.178,0.152c-0.077,0.06 -0.153,0.123 -0.232,0.182c-0.024,0.017 -0.129,0.049 -0.079,0.044c0.052,-0.005 0.158,-0.062 0.122,-0.032c-0.036,0.03 -0.122,0.06 -0.15,0.092c-0.062,0.087 -0.085,0.068 -0.134,0.106c-0.025,0.019 -0.006,-0.017 0.013,-0.055c0.016,-0.033 0.033,-0.066 0.017,-0.06c-0.035,0.016 -0.227,0.123 -0.254,0.15c-0.025,0.025 0.021,0.082 -0.008,0.082c-0.008,0 -0.017,-0.002 -0.024,-0.003c-0.021,-0.005 -0.041,-0.009 -0.066,0.017c-0.036,0.038 -0.052,0.054 -0.104,0.103c-0.101,0.098 -0.047,0.066 0.038,0.033c0.09,-0.033 0.216,-0.068 0.235,0.047c0.005,0.027 0.054,0.019 0.096,0.011c0.047,-0.009 0.088,-0.017 0.055,0.019c-0.065,0.071 -0.185,0.174 -0.24,0.227c-0.011,0.009 -0.013,0.003 -0.021,-0.003c-0.006,-0.005 -0.016,-0.011 -0.033,-0.009c-0.09,0.013 -0.229,0.043 -0.112,-0.01c0.128,-0.058 0.207,-0.155 0.219,-0.177c0.013,-0.021 -0.382,0.092 -0.436,0.227c-0.009,0.024 0.022,0.014 0.051,0.006c0.032,-0.01 0.063,-0.017 0.047,0.011c-0.03,0.055 -0.388,0.15 -0.453,0.174c-0.066,0.024 -0.115,0.085 -0.163,0.093c-0.046,0.008 -0.096,0.06 -0.114,0.107c-0.017,0.049 -0.077,0.021 -0.123,0.044c-0.046,0.022 -0.066,0.058 -0.115,0.084c-0.035,0.017 -0.065,0.043 -0.101,0.058c-0.03,0.013 -0.062,0.025 -0.092,0.036c-0.112,0.041 -0.204,0.101 -0.294,0.185c-0.158,0.147 0.142,0.131 -0.052,0.231c-0.051,0.025 -0.101,0.051 -0.152,0.076c-0.044,0.021 -0.092,0.065 -0.109,0.079c-0.016,0.013 0.043,-0.003 0.079,-0.014c0.03,-0.01 0.057,-0.03 0.041,-0.006c-0.035,0.052 -0.099,0.032 -0.147,0.052c-0.047,0.021 -0.068,0.039 -0.101,0.126c-0.005,0.013 -0.009,0.046 -0.036,0.079c-0.013,0.017 0.159,-0.052 0.328,-0.118c0.166,-0.066 0.33,-0.133 0.309,-0.12c-0.041,0.028 -0.414,0.253 -0.444,0.238c-0.024,-0.009 -0.038,0.027 -0.051,0.065c-0.019,0.054 -0.036,0.107 -0.079,0.017c-0.01,-0.019 0.057,-0.082 0.005,-0.041c-0.052,0.041 -0.079,0.003 -0.136,0.085c-0.032,0.052 -0.219,0.24 -0.101,0.153c0.12,-0.087 0.289,-0.087 0.219,-0.044c-0.07,0.043 -0.234,0.109 -0.283,0.134c-0.049,0.024 0.009,0.264 -0.169,0.251c-0.009,-0.002 0.013,-0.024 -0.025,-0.005c-0.041,0.019 -0.111,0.06 -0.183,0.073c0.047,-0.052 0.139,-0.046 0.201,-0.088c0.036,-0.025 0.055,-0.081 0.076,-0.133c0.014,-0.035 0.038,-0.076 0.024,-0.071c-0.036,0.013 -0.087,0.03 -0.122,0.041c-0.035,0.013 -0.021,0.101 -0.051,0.128c-0.032,0.03 -0.224,0.06 -0.278,0.088c-0.055,0.028 -0.044,0.099 -0.068,0.114c-0.024,0.014 -0.033,0.017 -0.052,0.019c-0.021,0.003 -0.022,0.003 -0.047,0.021c-0.025,0.017 0.011,0.049 0.028,0.051c0.019,0.003 0.084,-0.016 0.133,-0.039c0.051,-0.024 0.006,-0.09 0.063,-0.084c0.025,0.003 0.079,0.051 0.079,0.096c0,0.032 -0.024,0.03 -0.062,0.028c-0.022,-0.002 -0.044,-0.002 -0.066,0.002c-0.074,0.011 -0.092,0.006 -0.117,0.036c-0.003,0.003 -0.01,0.002 -0.017,0c-0.014,-0.005 -0.033,-0.009 -0.036,0.032c-0.005,0.062 0.09,0.088 0.071,0.066c-0.019,-0.022 -0.043,-0.062 0.006,-0.024c0.049,0.038 0.054,0.194 0.159,0.152c0.106,-0.041 -0.032,0.041 -0.016,0.058c0.054,0.057 0.281,0.014 0.314,-0.073c0.013,-0.033 -0.022,-0.046 -0.052,-0.051c-0.03,-0.003 0.186,-0.069 0.267,-0.05c0.088,0.022 0.126,0.098 0.139,0.085c0.024,-0.025 0.041,-0.028 0.069,-0.049c0.027,-0.021 -0.051,-0.085 0.039,-0.066c0.09,0.019 0.15,-0.055 0.235,-0.099c0.066,-0.035 0.161,-0.036 0.142,-0.017c-0.043,0.044 -0.032,0.038 -0.062,0.054c-0.03,0.016 -0.096,0 -0.077,0.016c0.093,0.073 0.189,0.006 0.182,-0.021c-0.039,-0.139 0.065,-0.033 0.062,-0.144c-0.047,-0.13 -0.276,0.027 -0.453,0.129c-0.03,0.017 -0.087,0.022 -0.112,0.035c-0.017,0.008 -0.003,0.025 -0.017,0.032c-0.036,0.014 -0.063,0.016 -0.076,-0.002c-0.035,-0.044 0.546,-0.3 0.603,-0.336c0.062,-0.038 0.096,-0.041 0.156,-0.032c0.016,0.002 -0.003,0.009 -0.016,0.024c-0.013,0.016 0.013,0.051 0.043,0.049c0.03,-0.002 0.496,-0.212 0.581,-0.283c0.028,-0.025 0.01,-0.153 -0.082,-0.199c-0.093,-0.046 0.272,-0.166 0.308,-0.169c0.036,-0.003 0.062,-0.052 0.073,-0.082c0.011,-0.032 0.019,-0.066 0.016,0.038c-0.003,0.104 0.035,-0.073 0.088,-0.077c0.054,-0.006 0.18,-0.074 0.152,-0.025c-0.028,0.051 -0.043,0.268 -0.216,0.246c-0.175,-0.021 -0.265,0.163 -0.292,0.182c-0.027,0.019 0.016,0.038 0.025,0.062c0.005,0.01 0.027,-0.003 0.058,-0.017c0.039,-0.017 0.093,-0.036 0.144,-0.003c0.088,0.058 0.074,0.025 0.06,-0.03c-0.017,-0.066 -0.041,-0.057 -0.06,-0.049c-0.006,0.003 -0.014,0.006 -0.019,0.005c-0.058,-0.011 0.114,-0.101 0.177,-0.085c0.063,0.017 -0.07,0.099 -0.027,0.115c0.043,0.016 0.093,-0.016 0.093,-0.052c0,-0.036 -0.006,-0.066 0.027,-0.109c0.033,-0.043 0.039,-0.039 0.041,-0.069c0.002,-0.03 -0.002,-0.024 -0.006,-0.062c-0.003,-0.017 0.003,-0.002 0.013,0.013c0.009,0.017 0.022,0.035 0.032,0.003c0.008,-0.033 0.011,-0.118 0.013,-0.136c0,-0.008 -0.003,-0.006 -0.009,-0.005c-0.006,0.003 -0.014,0.005 -0.009,-0.014c0.008,-0.035 0.197,-0.156 0.186,-0.12c-0.036,0.118 -0.205,0.005 -0.112,0.261c0.054,0.15 0.134,0.114 0.191,0.077c0.041,-0.025 0.071,-0.05 0.074,-0.011c0.006,0.096 0.057,-0.002 0.063,-0.039c0.008,-0.039 -0.027,-0.081 -0.041,-0.095c-0.013,-0.014 0.003,-0.055 -0.003,-0.088c-0.008,-0.033 -0.068,-0.13 -0.074,-0.088c-0.008,0.041 -0.003,0.006 -0.011,0.058c-0.003,0.028 -0.028,-0.017 -0.035,-0.063c-0.005,-0.039 0.003,-0.079 0.047,-0.073c0.096,0.014 0.079,-0.069 0.153,-0.081c0.073,-0.013 0.093,-0.019 0.087,0.008c-0.008,0.027 -0.025,0.074 0.002,0.122c0.017,0.032 0.084,-0.016 0.15,-0.062c0.081,-0.057 0.158,-0.112 0.145,-0.03c-0.024,0.15 -0.251,0.095 -0.254,0.231c-0.002,0.038 0.027,0.032 0.06,0.024c0.024,-0.006 0.054,-0.011 0.076,0.002c0.052,0.032 -0.099,0.013 -0.09,0.101c0.008,0.088 -0.039,0.202 -0.087,0.148c-0.047,-0.054 0.021,-0.218 -0.025,-0.147c-0.044,0.071 -0.062,0.073 -0.038,0.136c-0.032,-0.019 -0.145,0.074 -0.104,0.079c0.041,0.005 0.099,-0.003 0.058,0.016c-0.041,0.019 -0.262,0.164 -0.319,0.117c-0.014,-0.011 -0.017,-0.017 0.003,-0.055c0.017,-0.032 -0.017,-0.038 -0.055,-0.011c-0.039,0.027 -0.039,0.008 -0.019,-0.019c0.022,-0.027 0.046,-0.033 0.033,-0.074c-0.013,-0.043 -0.144,0.021 -0.071,0.213c0.016,0.043 -0.178,0.123 -0.279,0.046c-0.033,-0.025 -0.003,0.123 0.006,0.133c0.011,0.009 0.033,0.03 0.032,0.039c-0.002,0.008 -0.014,0.058 -0.008,0.055c0.006,-0.003 0.041,-0.022 0.032,-0.008c-0.011,0.014 -0.033,0.021 -0.036,0.039c-0.003,0.019 0.008,0.115 0.055,0.095c0.047,-0.019 0.136,-0.111 0.199,-0.09c0.022,0.006 0.016,-0.009 0.025,-0.032c0.013,-0.022 0.052,-0.077 0.073,-0.079c0.021,-0.002 0.049,-0.073 0.046,-0.046c-0.003,0.028 -0.032,0.043 -0.005,0.049c0.027,0.006 0.082,0.032 0.081,0.011c-0.003,-0.039 -0.011,-0.065 0.011,-0.12c0.028,-0.071 -0.032,-0.159 0.118,-0.107c0.074,0.025 0.112,0.006 0.133,-0.014c0.022,-0.021 0.024,-0.041 0.028,-0.011c0.006,0.06 0.016,0.087 0.024,-0.011c0.008,-0.099 0.21,-0.193 0.248,-0.166c0.065,0.044 0.115,0.024 0.163,0.002c0.039,-0.017 0.076,-0.036 0.117,-0.014c0.033,0.017 -0.065,0.025 -0.139,0.069c-0.125,0.073 -0.265,0.186 -0.215,0.174c0.077,-0.021 0.178,-0.016 0.167,0.036c-0.011,0.052 -0.347,0.084 -0.253,0.092c0.027,0.002 0.177,0.017 0.126,0.025c-0.051,0.009 -0.164,0.115 -0.142,0.111c0.021,-0.005 0.207,-0.085 0.292,-0.088c0.052,-0.002 0.134,0.025 0.134,0.047c0,0.022 0.066,-0.016 0.07,-0.063c0.003,-0.049 -0.014,-0.084 0.008,-0.101c0.006,-0.005 0.033,-0.002 0.073,0.002c0.103,0.009 0.289,0.017 0.387,-0.117l0.058,-0.096c0.017,-0.06 0.39,-0.328 0.401,-0.099c0.002,0.039 0.242,-0.136 0.183,-0.136c-0.038,0 -0.073,-0.008 -0.066,-0.076c0.006,-0.069 0.025,-0.161 0.002,-0.188c-0.077,-0.079 0.223,-0.085 0.275,-0.03c0.028,0.024 -0.019,0.188 -0.103,0.219c-0.041,0.014 -0.049,0.035 -0.047,0.058c0.002,0.025 0.063,0.03 0.088,0.017c0.049,-0.024 0.674,-0.338 0.674,-0.338c-0.3,0.218 -0.668,0.452 -0.988,0.554c-0.101,0.032 -0.254,0.055 -0.286,0.052c-0.03,-0.002 0.062,-0.025 0.017,-0.036c-0.044,-0.011 -0.096,0.011 -0.164,0.09c0,0 -0.074,0.09 -0.074,0.085c-0.062,0.071 -0.125,0.136 -0.18,0.145c-0.494,0.164 -0.968,0.379 -1.445,0.543c-0.011,0.005 0.013,0.058 0.044,0.054c0.032,-0.005 0.051,-0.027 0.044,-0.006c-0.035,0.104 -0.169,0.093 -0.188,0.109c-0.021,0.014 0.036,-0.057 0.043,-0.107c0.006,-0.051 -0.017,-0.022 -0.051,-0.014c-0.022,0.008 -0.046,0.017 -0.066,0.028c-0.027,0.013 -0.052,0.046 -0.084,0.079c-0.008,0.008 -0.014,0.014 -0.021,0.022c-0.044,0.05 -0.082,0.049 -0.13,0.049c-0.014,0 -0.028,0 -0.044,0c-0.073,0.003 -0.278,0.103 -0.36,0.155c-0.082,0.052 -0.088,0.054 -0.227,0.103h-0.002c-0.06,0.022 -0.109,0.038 -0.128,0.049c-0.057,0.033 -0.159,0.088 -0.153,0.216c0,0.014 0.058,-0.008 0.118,-0.03c0.046,-0.017 0.093,-0.035 0.115,-0.035c0.017,0 0.087,-0.041 0.136,-0.058c0.079,-0.025 0.141,-0.03 0.109,-0.013c-0.046,0.024 -0.21,0.071 -0.167,0.073c0.014,0.002 0.032,-0.002 0.047,-0.005c0.03,-0.006 0.052,-0.011 0.036,0.006c-0.025,0.028 -0.177,0.081 -0.21,0.104c-0.033,0.024 -0.267,0.183 -0.376,0.133c-0.006,-0.003 -0.036,0.008 -0.065,0.017c-0.041,0.014 -0.081,0.03 -0.033,0.003c0.076,-0.044 0.295,-0.111 0.234,-0.12c-0.03,-0.003 -0.122,0.021 -0.215,0.046c-0.109,0.028 -0.221,0.057 -0.248,0.041c-0.019,-0.011 0.03,-0.008 0.096,-0.024c0.106,-0.025 0.268,-0.073 0.374,-0.114c0.036,-0.014 0.041,-0.022 0.036,-0.032c0,0 -0.005,-0.01 -0.013,-0.021c-0.008,-0.011 0.013,-0.009 0.005,-0.033c-0.009,-0.025 -0.088,-0.109 -0.096,-0.006c-0.344,0.017 -0.527,0.167 -0.546,0.189c-0.021,0.022 0.068,0.016 0.009,0.054c-0.06,0.038 -0.221,0.022 -0.166,0.06c0.03,0.021 0.103,-0.013 0.164,-0.046c0.057,-0.03 0.106,-0.06 0.103,-0.051c-0.046,0.145 -0.066,0.136 -0.096,0.126c-0.027,-0.009 -0.062,-0.017 -0.128,0.074c-0.017,0.024 -0.422,0.049 -0.564,0.087c-0.142,0.038 -0.249,0.081 -0.363,0.101c-0.106,0.017 -0.148,0.046 -0.164,0.057c-0.016,0.013 -0.057,0.052 -0.039,0.062c0.071,0.038 0.199,-0.016 0.297,-0.039c0.099,-0.024 0.166,-0.016 0.123,0.027c-0.084,0.084 -0.159,0.058 -0.256,0.145c-0.096,0.087 -0.087,0.063 -0.137,0.106c-0.051,0.043 0.156,-0.03 0.188,-0.038c0.039,-0.013 0.079,-0.025 0.118,-0.035c0.074,-0.022 0.155,-0.055 0.188,-0.099l0.081,-0.111c0.054,-0.073 0.178,-0.095 0.223,-0.115h0.002c0.047,-0.041 0.104,-0.01 0.107,0.006c0.003,0.019 -0.054,0.065 -0.035,0.073c0.019,0.008 0.028,0.022 0.06,0.013c0.049,-0.014 0.088,-0.011 0.128,-0.008c0.038,0.003 0.076,0.006 0.12,-0.006c0.243,-0.055 0.521,-0.185 0.725,-0.115c0.063,0.021 -0.081,0.082 -0.088,0.12c-0.014,0.099 0.06,0.057 0.087,0.085c-0.232,0.142 -0.362,0.099 -0.493,0.057c-0.068,-0.022 -0.136,-0.044 -0.216,-0.039c-0.054,0.002 -0.156,0.06 -0.226,0.092c-0.009,0.005 -0.022,0.011 -0.041,0.016c-0.057,0.017 -0.281,0.036 -0.366,0.06c-0.002,0 -0.003,0 -0.003,0.002c-0.202,0.073 -0.398,0.126 -0.592,0.172c-0.272,0.15 -0.531,0.321 -0.829,0.42c-0.041,0.011 0.066,0.016 0.06,0.024c-0.137,0.21 0.009,0.166 0.003,0.246c-0.006,0.082 0.044,0.032 0.081,-0.003c0.021,-0.021 0.027,-0.136 0.011,-0.114c-0.016,0.022 -0.03,0.041 -0.041,0.054c-0.03,0.032 -0.024,0.014 -0.03,-0.008c-0.006,-0.019 -0.017,-0.003 -0.027,-0.032c-0.011,-0.03 0.049,-0.033 0.088,-0.066c0.027,-0.022 0.047,-0.036 0.069,-0.052c0.071,-0.066 0.163,-0.15 0.137,0.011c-0.014,0.098 -0.035,0.06 -0.051,0.021c-0.011,-0.024 -0.019,-0.047 -0.024,-0.039c-0.013,0.022 -0.051,0.032 -0.058,0.046c-0.035,0.063 -0.035,0.134 -0.021,0.109c0.016,-0.024 0.051,-0.09 0.047,-0.062c-0.009,0.069 -0.068,0.174 -0.038,0.169c0.199,-0.033 0.505,-0.496 0.666,-0.351c0.055,0.051 0.066,-0.074 0.057,-0.087c-0.008,-0.014 -0.057,-0.036 -0.101,-0.068c-0.044,-0.032 0.36,0.006 0.333,0.03c-0.027,0.024 -0.03,0.022 -0.046,0.047c-0.066,0.106 -0.112,0.248 -0.054,0.232c0.532,-0.106 1.014,-0.215 1.585,-0.455c0.093,-0.043 0.008,-0.221 0.002,-0.213c-0.008,0.008 -0.06,0.128 -0.06,0.128c-0.043,0.077 -0.224,0.011 -0.238,-0.063c-0.009,-0.051 0.128,-0.038 0.202,-0.074c0.237,-0.115 0.51,-0.289 0.564,-0.009c0.005,0.028 0.088,-0.008 0.188,-0.044c0.123,-0.046 0.27,-0.092 0.316,-0.009c0.011,0.025 -0.003,-0.046 0.226,-0.107c0.03,-0.008 0.063,-0.014 0.098,-0.011c0.017,0.005 0.036,-0.051 0.052,-0.088c0.021,0.006 0.084,-0.046 0.092,-0.079c0,0 0.013,-0.095 0.025,-0.137c0.013,-0.041 0.081,-0.011 0.049,0.013c-0.032,0.024 -0.051,0.054 -0.047,0.07c0.003,0.021 -0.002,0.032 0.01,0.043c0.009,0.009 0.106,-0.065 0.177,-0.085c0,0 -0.019,0.043 -0.081,0.051c-0.03,0.005 -0.114,0.073 -0.058,0.062c0.019,-0.003 0.036,-0.002 0.054,0c0.027,0.002 0.057,0.003 0.098,-0.009c0.028,-0.022 0.028,-0.046 0.06,-0.062c0.008,-0.003 0.017,0.002 0.027,0.006c0.019,0.01 0.043,0.019 0.071,-0.036l0.06,-0.103c0.016,0.024 0.032,0.068 0.058,0.052c0.027,-0.011 0.055,-0.022 0.082,-0.035c0.123,-0.058 0.245,-0.122 0.365,-0.183c0.033,-0.017 0.065,-0.038 0.099,-0.057c0.069,-0.038 0.141,-0.076 0.212,-0.112c0.006,-0.003 0.013,0 0.017,0.002c0.011,0.003 0.022,0.008 0.032,-0.016c0,0 0.022,-0.073 0.041,-0.088c0.006,-0.005 0.025,-0.002 0.055,0.002c0.065,0.006 0.18,0.014 0.341,-0.063c0.025,-0.011 0.038,-0.022 0.076,-0.019c0.036,0.003 0.103,-0.058 0.257,-0.158c0.609,-0.387 2.151,-1.404 3.047,-2.065c-0.077,0.141 -0.161,0.186 -0.251,0.224c-0.117,0.051 -0.311,0.311 -0.377,0.308c-0.114,-0.008 -0.267,0.136 -0.426,0.287c-0.022,0.025 0,0.014 0.032,0.003c0.024,-0.009 0.055,-0.017 0.076,-0.011c0.028,0.011 0.014,0.063 0.041,0.039c0.057,-0.043 0.175,-0.142 0.159,-0.103c0,0 -0.028,0.093 -0.06,0.128c-0.032,0.035 -0.09,0.039 -0.092,0.066c0,0.035 0.002,0.062 0.022,0.036c0.313,-0.292 0.614,-0.575 0.938,-0.878c0.044,-0.043 0.063,-0.098 0.136,-0.126c0.153,-0.065 0.298,-0.221 0.455,-0.362c0.066,-0.06 0.126,-0.125 0.189,-0.188c0.051,-0.049 0.106,-0.095 0.148,-0.15c0.043,-0.057 0.093,-0.084 0.161,-0.103c0.088,-0.025 0.186,-0.057 0.256,-0.114c0.134,-0.111 0.256,-0.238 0.373,-0.366c0.092,-0.101 0.177,-0.21 0.246,-0.325c0.088,-0.15 0.193,-0.268 0.381,-0.275c0.054,0.002 0.027,-0.024 0.038,-0.038c0.141,-0.145 0.196,-0.346 0.325,-0.482c0.021,-0.021 -0.017,-0.09 -0.022,-0.114c-0.005,-0.038 0.098,-0.03 0.118,-0.06c0.112,-0.15 0.278,-0.257 0.354,-0.437c0.024,-0.055 0.054,-0.111 0.087,-0.161c0.032,-0.046 0.065,-0.098 0.109,-0.126c0.09,-0.057 0.19,-0.098 0.286,-0.145c0.024,-0.011 0.047,0.01 0.068,0.028c0.021,0.021 0.036,0.041 0.041,0.028c0.084,-0.164 0.161,-0.319 0.24,-0.474c0.071,-0.139 0.118,-0.297 0.218,-0.411c0.128,-0.144 0.193,-0.309 0.251,-0.483c0.043,-0.128 0.093,-0.248 0.215,-0.305c0.041,-0.024 0.017,-0.153 0.129,-0.139c0.025,0.008 0.054,0.041 0.06,0.09c0.002,0.011 0.005,0.096 0.021,0.032c0.043,-0.15 0.076,-0.27 0.109,-0.39c0.066,-0.193 0.182,-0.37 0.175,-0.538c0.092,-0.152 0.159,-0.267 0.232,-0.387c0.014,-0.021 -0.011,-0.051 -0.013,-0.079c-0.005,-0.122 -0.021,-0.245 -0.01,-0.365c0.006,-0.065 0.024,-0.125 0.011,-0.193c-0.008,-0.046 -0.006,-0.115 0.022,-0.147c0.107,-0.115 0.134,-0.257 0.155,-0.403c0.016,-0.103 0.047,-0.191 0.104,-0.227c0.052,-0.118 0.099,-0.199 0.122,-0.289c0.024,-0.098 0.069,-0.174 0.152,-0.221c0.025,-0.016 0.041,-0.09 0.058,-0.126c0.009,-0.025 0.079,-0.016 0.117,-0.065c0.071,-0.159 0.014,-0.275 -0.055,-0.373c-0.024,-0.032 -0.081,-0.058 -0.071,-0.092c0.068,-0.235 0.126,-0.444 0.189,-0.651c0.016,-0.051 0.049,-0.096 0.069,-0.139c0.011,-0.027 0.055,-0.024 0.101,-0.021c0.022,0.002 0.046,0.003 0.063,0.002c0.046,-0.005 0.032,-0.122 0.038,-0.182c0.017,-0.131 0.025,-0.262 0.044,-0.393c0.035,-0.234 0.085,-0.464 0.076,-0.703c-0.005,-0.112 -0.011,-0.231 0.019,-0.336c0.046,-0.159 0.043,-0.317 0.024,-0.477c-0.011,-0.092 0.005,-0.164 0.044,-0.243c0.025,-0.047 0.036,-0.104 0.041,-0.158c0.008,-0.096 0.008,-0.196 0.011,-0.281c0,-0.044 0.096,-0.066 0.111,-0.104c0.092,-0.268 -0.071,-0.456 -0.171,-0.638c-0.024,-0.051 0.009,-0.172 -0.002,-0.245c-0.017,-0.115 -0.055,-0.229 -0.069,-0.344c-0.019,-0.144 -0.006,-0.281 0.106,-0.393c0.036,-0.034 0.048,-0.093 0.058,-0.142zM12.701,31.442c-0.009,-0.047 0.003,-0.016 -0.019,-0.144c-0.021,-0.128 0.062,0.032 0.077,0.052c0.047,0.065 0.002,0.155 0.036,0.249c-0.106,-0.028 -0.085,-0.113 -0.094,-0.157zM12.868,30.643c0.025,0.036 0.046,0.041 0.068,0.062c-0.003,0.041 -0.049,0.032 -0.088,0.057c-0.022,0.013 -0.062,0.136 -0.082,0.136c-0.009,0 -0.016,-0.021 -0.016,-0.076c0,-0.193 0.051,-0.368 0.191,-0.376c0.082,-0.001 -0.144,0.096 -0.073,0.197zM15.462,22.593c0.011,-0.009 0.032,-0.005 0.052,-0.006c0.058,-0.006 0.039,0.022 0.003,0.051c-0.032,0.025 -0.079,0.052 -0.098,0.052c-0.006,-0.002 -0.01,-0.005 -0.003,-0.017c0.024,-0.045 0.032,-0.067 0.046,-0.08zM15.02,22.969c-0.005,-0.002 -0.008,-0.003 -0.008,-0.013c0,-0.058 0.024,-0.087 0.055,-0.107c0.022,-0.016 0.081,-0.088 0.073,-0.046c-0.003,0.098 -0.003,0.114 -0.076,0.137c-0.011,0.004 -0.033,0.029 -0.044,0.029zM15.145,40.966c-0.025,-0.049 0.014,-0.128 -0.003,-0.167c-0.038,-0.09 -0.081,-0.178 -0.155,-0.238c0.073,-0.011 0.12,-0.088 0.142,-0.021c0.022,0.068 0.136,0.196 0.242,0.256c0.049,0.028 0.049,0.09 0.024,0.156c-0.016,0.041 -0.03,0.093 -0.07,0.122c-0.005,0.003 -0.011,0.005 -0.017,0.003c-0.042,-0.001 -0.127,-0.042 -0.163,-0.111zM15.352,41.217c-0.005,-0.002 -0.013,-0.005 -0.021,-0.014c-0.032,-0.033 -0.002,-0.082 0.028,-0.099c0.011,-0.006 0.024,-0.054 0.038,-0.014c0.014,0.038 0.021,0.087 -0.027,0.104c-0.007,0.002 -0.007,0.023 -0.018,0.023zM15.5,41.44c-0.006,0.022 0.011,0.096 0.017,0.142c-0.013,0.003 0.006,0.069 0,0.09c0,0.002 0,0.002 -0.002,0.002c-0.009,-0.002 -0.073,-0.219 -0.109,-0.264c-0.038,-0.047 0.087,-0.03 0.139,-0.079c0.052,-0.049 0.057,-0.088 0.081,0.008c0.024,0.096 -0.12,0.079 -0.126,0.101zM15.641,22.481c-0.006,0 -0.016,-0.008 -0.035,-0.03c-0.041,-0.033 -0.032,-0.057 0.025,-0.099c0.035,-0.028 0.009,0.054 0.005,0.068c-0.002,0.008 0.017,0.061 0.005,0.061zM16.214,21.412c-0.008,-0.002 -0.017,0.003 -0.024,0.008c-0.006,0.005 -0.009,0.008 -0.011,0.008c-0.002,0 -0.002,-0.002 0,-0.006c0.014,-0.054 0.046,-0.065 0.077,-0.005c0.021,0.046 -0.012,0.005 -0.042,-0.005zM16.449,21.303c-0.01,0.002 -0.021,0 -0.033,-0.002c-0.051,-0.003 0.032,-0.028 0.043,-0.041c0.016,-0.014 0.038,-0.092 0.049,-0.046c0.009,0.067 -0.005,0.089 -0.059,0.089zM26.685,50.566c0.006,0.025 0.019,0.049 0.058,0.058c0.038,0.008 0.098,0.011 0.158,0.013c0.06,0.003 0.107,-0.002 0.139,0.017c0.032,0.019 0.065,0.032 0.109,0.032c0.046,0 -0.038,0.047 -0.068,0.041c-0.065,-0.016 -0.122,-0.016 -0.167,-0.016c-0.024,-0.002 -0.044,-0.002 -0.058,-0.003c-0.046,-0.006 -0.137,-0.035 -0.159,-0.057c-0.024,-0.024 -0.047,-0.058 -0.047,-0.085c-0.001,-0.027 0.029,-0.025 0.035,0zM21.963,39.984c0.073,0.063 0.133,0.141 0.193,0.216c0.009,0.013 -0.003,0.062 -0.019,0.074c-0.022,0.017 -0.066,0.017 -0.087,0.019h-0.005c-0.096,-0.002 -0.139,-0.183 -0.213,-0.265c-0.065,-0.079 0.096,-0.074 0.131,-0.044zM21.033,39.581c-0.014,0.003 -0.025,0.008 -0.032,0.008c-0.005,-0.002 -0.008,-0.003 -0.003,-0.008c0.058,-0.117 0.136,-0.123 0.306,-0.022c0.016,0.01 0.006,0.008 -0.013,0.006c-0.019,-0.003 -0.049,-0.005 -0.063,0.008c-0.047,0.041 -0.084,0.103 -0.128,0.13c-0.046,0.025 -0.024,-0.022 -0.014,-0.039c0.013,-0.025 0.03,-0.054 0.022,-0.073c-0.011,-0.026 -0.047,-0.018 -0.075,-0.01zM21.154,39.22c0.082,0.017 0.017,0.051 -0.073,0.081h-0.001c-0.032,0 -0.178,-0.251 -0.193,-0.308c-0.034,-0.111 0.166,0.205 0.267,0.227zM20.976,39.676c0.054,0.013 -0.148,0.101 -0.115,0.123c0.058,0.049 0.051,0.131 0.074,0.202c0.013,0.039 0.062,0.123 0.088,0.098c0.125,-0.109 0.133,-0.287 0.226,-0.411c0.036,-0.06 0.172,-0.033 0.262,0.069c0.016,0.019 0.068,0.043 0.052,0.065c-0.033,0.129 0.033,0.226 0.112,0.305c0.092,0.088 -0.227,0.144 -0.201,0.212c0.006,0.021 0.011,0.055 0.03,0.077c0.155,0.194 0.073,0.502 0.272,0.662c0.073,0.058 0.142,0.115 0.136,0.202c-0.003,0.063 0.123,0.068 0.055,0.092h-0.006c-0.079,0 -0.128,-0.05 -0.175,-0.099c-0.237,-0.256 -0.478,-0.507 -0.707,-0.769c-0.12,-0.137 -0.215,-0.295 -0.321,-0.444c-0.022,-0.032 -0.052,-0.057 -0.071,-0.087c-0.052,-0.079 -0.104,-0.159 -0.062,-0.275c0.021,-0.057 0.209,-0.074 0.351,-0.022zM20.636,38.811l0.071,-0.137c0.052,0.122 0.047,0.136 -0.066,0.262h-0.147c0.011,-0.095 0.1,-0.083 0.142,-0.125zM18.689,45.01c0.039,0.019 0.027,0.106 0.055,0.15c0.036,0.055 0.12,0.171 0.114,0.201c0,0.002 -0.002,0.003 -0.003,0.003c-0.008,0 -0.033,-0.021 -0.051,-0.025c-0.071,-0.016 -0.15,-0.292 -0.142,-0.351c0.002,-0.01 0.021,0.02 0.027,0.022zM30.276,19.176c-0.016,-0.006 -0.03,-0.014 -0.033,-0.014c-0.095,-0.009 -0.088,-0.039 -0.049,-0.044c0.013,-0.003 0.024,-0.046 0.036,-0.009c0.006,0.024 0.087,0.027 0.093,0.051c0.018,0.043 -0.019,0.029 -0.047,0.016zM30.344,19.309c-0.005,0.002 -0.009,0.002 -0.013,0.002c-0.022,0 -0.033,-0.013 -0.017,-0.025c0.025,-0.025 0.022,-0.055 0.03,-0.069c0.009,-0.025 0.014,0.044 0.032,0.062c0.043,0.022 -0.004,0.024 -0.032,0.03zM31.364,19.156c-0.036,0 0.019,-0.03 0.025,-0.041l0.039,-0.065c0.008,-0.014 0.032,0 0.035,0.022c0.008,0.051 -0.012,0.078 -0.099,0.084zM34.541,18.854c-0.182,0.062 -0.385,0.011 -0.518,0.167c-0.017,0.024 -0.038,0.005 -0.058,-0.013c-0.016,-0.013 -0.03,-0.027 -0.043,-0.024c-0.028,0.008 -0.046,0.039 -0.073,0.068c-0.017,0.017 -0.065,-0.021 -0.106,-0.033c-0.025,-0.006 -0.071,0.024 -0.111,0.035c-0.021,0.005 -0.021,-0.013 -0.03,-0.016c-0.087,-0.009 -0.201,-0.051 -0.231,-0.03c-0.006,0.005 -0.011,0.009 -0.017,0.013c-0.017,0.017 -0.06,-0.051 -0.095,-0.058c-0.052,-0.014 -0.112,-0.03 -0.163,-0.016c-0.15,0.039 -0.428,0.06 -0.452,0.014c-0.019,-0.041 -0.016,-0.101 -0.06,-0.131c-0.017,-0.006 -0.041,-0.022 -0.062,-0.017c-0.17,0.032 -0.339,0.066 -0.51,0.099c-0.068,0.013 -0.136,0.024 -0.205,0.027c-0.054,0.003 -0.107,0.003 -0.159,0.002c-0.044,0 -0.09,-0.002 -0.134,0c-0.099,0.003 -0.201,0.019 -0.25,-0.109c-0.013,-0.044 0.073,-0.093 0.054,-0.137c-0.032,-0.088 -0.068,-0.183 -0.107,-0.287c0.016,-0.057 0.063,-0.054 0.12,-0.046c0.063,0.009 0.129,0.009 0.193,0.017c0.122,0.014 0.243,0.027 0.365,0.044c0.035,0.005 0.068,0.009 0.101,0.009c0.058,0.002 0.109,-0.011 0.147,-0.049c0.033,-0.03 0.167,-0.032 0.24,-0.039c0.088,-0.009 0.18,-0.027 0.267,-0.013c0.077,0.013 0.15,0.065 0.221,0.107c0.125,0.036 0.253,0.068 0.387,0.035c0.043,-0.011 0.093,0.006 0.137,0.014c0.126,0.019 0.321,0.013 0.395,0.062c0.014,0.013 0.027,0.074 0.081,0.066c0.106,-0.019 0.243,-0.085 0.322,-0.062c0.15,0.046 0.289,0.09 0.311,0.136c0.012,0.049 0.09,0.146 0.043,0.165zM39.978,44.181c-0.006,0.014 -0.027,0.019 -0.043,0.033c-0.022,0.021 -0.043,0.041 -0.047,0.041c0,0.002 0.002,-0.002 0.005,-0.008c0.022,-0.039 0.047,-0.062 0.087,-0.122c0.039,-0.06 0.019,0.016 -0.002,0.056zM38.101,45.652c-0.057,0.033 -0.131,0.068 -0.164,0.05c-0.024,-0.014 -0.032,0.008 -0.052,0.016c-0.044,0.017 -0.035,0.081 -0.076,0.104c-0.041,0.024 -0.115,0.057 -0.155,0.071c-0.039,0.014 -0.014,-0.027 0.013,-0.054c0.014,-0.013 0.027,-0.013 0.041,-0.011l0.009,-0.002c0.011,0 0.024,-0.002 0.038,-0.011c0.038,-0.025 0.049,-0.036 0.087,-0.073c0.024,-0.024 0.058,-0.039 0.071,-0.051c0.013,-0.009 -0.022,-0.013 -0.043,-0.024c-0.046,-0.022 0.254,-0.051 0.3,-0.071c0.023,-0.007 -0.015,0.025 -0.069,0.056zM36.869,46.713c-0.002,0 -0.003,0 -0.006,0c-0.013,0.002 -0.032,-0.006 -0.047,-0.013c-0.017,-0.008 0.076,-0.016 0.093,-0.016c0.017,0.001 -0.027,0.026 -0.04,0.029zM36.779,46.996c0.024,-0.035 -0.027,-0.088 0.025,-0.084l0.005,-0.002c0.017,0 0.032,-0.01 0.043,-0.017c0.021,-0.017 0.03,-0.033 0.022,0.009c-0.011,0.067 -0.12,0.129 -0.095,0.094zM37.902,46.124c0.008,-0.002 0.016,-0.002 0.024,-0.002c0.036,-0.005 0.068,-0.025 0.06,-0.013c-0.016,0.024 -0.047,0.107 -0.099,0.038c-0.018,-0.023 -0.005,-0.023 0.015,-0.023zM37.654,46.453c-0.021,-0.008 -0.024,0.038 -0.038,0.039c-0.003,-0.022 0.024,-0.071 0.038,-0.039zM37.392,46.521c0.019,-0.003 0.035,-0.016 0.033,0.003c-0.002,0.019 -0.008,0.027 -0.017,0.027c-0.011,0 -0.025,-0.006 -0.041,-0.019c-0.018,-0.011 0.005,-0.008 0.025,-0.011zM37.034,46.701c0.013,0.003 0.027,0.005 0.038,0.005c0.065,-0.003 0.129,-0.003 0.065,0.017c-0.076,0.022 -0.099,0.054 -0.117,0.054c-0.008,-0.002 -0.013,-0.005 -0.019,-0.011c-0.024,-0.03 0.009,-0.022 -0.008,-0.054c-0.011,-0.022 0.014,-0.018 0.041,-0.011zM37.361,46.896c-0.021,0.019 -0.035,0.044 -0.057,0.044c-0.003,0 -0.006,-0.002 -0.01,-0.002c-0.016,-0.003 0.068,-0.069 0.085,-0.101c0.017,-0.032 0.017,-0.011 0.027,0.022c0.005,0.015 -0.027,0.019 -0.045,0.037zM37.905,46.514c-0.025,0.038 -0.251,0.199 -0.305,0.221c-0.052,0.022 -0.189,0.013 -0.238,0.035c-0.049,0.022 -0.065,0.114 -0.136,0.152c-0.039,0.021 -0.074,0.013 -0.107,0.005c-0.027,-0.006 -0.052,-0.013 -0.079,-0.005c-0.065,0.016 -0.161,0.073 -0.114,0.019c0.047,-0.054 0.069,-0.079 0.065,-0.095c-0.005,-0.016 -0.024,-0.039 0.017,-0.03c0.063,0.016 0.156,-0.002 0.232,-0.055c0.022,-0.017 0.142,-0.051 0.182,-0.076c0.047,-0.032 0.017,-0.054 0.074,-0.079c0.013,-0.005 0.027,0 0.041,0.005c0.013,0.003 0.024,0.008 0.036,0.005c0.032,-0.009 0.057,-0.049 0.084,-0.047c0.136,0.011 0.052,0.016 -0.027,0.057c-0.06,0.032 -0.087,0.074 -0.062,0.074c0.006,0 0.021,-0.005 0.041,-0.016c0.082,-0.046 0.215,-0.129 0.256,-0.169c0.04,-0.042 0.067,-0.038 0.04,-0.001zM38.123,46.488c-0.052,0.022 -0.085,0.003 -0.142,0.022c-0.016,-0.131 0.106,-0.036 0.096,-0.148c-0.002,-0.025 -0.098,-0.022 -0.137,0.008c-0.039,0.03 -0.046,0.021 -0.068,0.003c-0.01,-0.008 0.002,-0.008 0.017,-0.006c0.005,0 0.009,0 0.016,0c0.014,0 0.028,-0.002 0.035,-0.01c0.014,-0.022 0.118,-0.114 0.182,0.054c0.006,0.017 -0.057,0.017 -0.032,0.027c0.025,0.01 0.087,0.026 0.033,0.05zM38.009,46.139c-0.022,0 -0.03,-0.009 -0.009,-0.027c0.025,-0.024 0.052,-0.016 0.085,-0.044c0.038,-0.03 0.081,-0.092 0.06,-0.032c-0.025,0.073 -0.099,0.103 -0.136,0.103zM38.153,45.924c-0.024,0.011 -0.038,0.014 -0.052,0.014c-0.008,0.002 -0.016,0 -0.022,-0.002c-0.024,-0.003 0.084,-0.038 0.103,-0.051c0.02,-0.01 0.004,0.025 -0.029,0.039zM41.207,43.164c0.021,-0.011 0.052,-0.024 0.062,-0.017c0.021,0.014 0.025,0.039 0.006,0.043c-0.008,0.002 -0.011,-0.003 -0.016,-0.008c-0.006,-0.006 -0.017,-0.011 -0.046,-0.005c-0.006,0.002 -0.014,0.003 -0.021,0.003c-0.012,0.003 -0.001,-0.007 0.015,-0.016zM40.695,43.854c0.016,0 -0.011,0.01 -0.035,0.028c-0.016,0.013 -0.021,0.036 -0.041,0.039c-0.003,0 -0.005,0.002 -0.008,0.002c-0.031,-0.001 0.059,-0.069 0.084,-0.069zM40.468,44.054c0.028,-0.051 0.036,-0.106 0.09,-0.024c0.036,0.057 0.218,-0.06 0.226,-0.092c0.008,-0.032 -0.046,-0.077 -0.016,-0.098c0.006,-0.003 0.021,-0.002 0.041,0.002c0.014,0.002 0.03,0.003 0.044,0.003c0.014,0.002 0.028,0 0.041,-0.005c0.082,-0.021 0.341,-0.185 0.26,-0.063c-0.081,0.122 -0.3,0.283 -0.491,0.314c0,0 -0.197,0.039 -0.25,0.039c-0.024,0.002 0.028,-0.031 0.055,-0.076zM40.643,44.828c-0.003,0 -0.003,-0.003 0.003,-0.009c0.049,-0.052 0.15,-0.172 0.278,-0.145c0.049,0.009 -0.052,0.032 -0.112,0.065c-0.08,0.04 -0.158,0.089 -0.169,0.089zM40.703,45.022c-0.005,0.011 -0.014,0.008 -0.024,0.005c-0.01,-0.002 -0.021,-0.005 -0.03,0.005c-0.019,0.019 -0.036,0.06 -0.041,0.06c-0.003,0 -0.003,-0.005 -0.002,-0.021c0.012,-0.098 0.121,-0.098 0.097,-0.049zM40.46,44.792c-0.046,0.058 -0.079,0.079 -0.103,0.079c-0.055,0.002 -0.055,-0.111 -0.013,-0.137c0.062,-0.038 0.407,-0.235 0.459,-0.264c0.053,-0.029 -0.191,0.131 -0.343,0.322zM40.599,44.804c-0.008,0.079 -0.081,0.058 -0.123,0.076c0.028,-0.071 0.068,-0.134 0.123,-0.076zM40.329,44.928c-0.054,0.068 -0.166,0.11 -0.196,0.11c-0.013,0 -0.014,-0.005 -0.002,-0.014c0.046,-0.038 0.025,-0.139 0.074,-0.171c0.033,-0.022 0.038,0.008 0.065,0.019c0.035,0.016 0.084,0.022 0.059,0.056zM40.386,44.46c0.111,-0.081 0.129,-0.101 0.202,-0.088c0.058,0.009 -0.15,0.052 -0.186,0.12c-0.008,0.014 -0.043,0.03 -0.06,0.03c-0.018,-0.002 -0.019,-0.016 0.044,-0.062zM40.267,44.556c0.002,0.021 0.016,0.017 0.032,0.016c0.017,-0.003 0.038,-0.005 0.039,0.028c0.003,0.063 -0.033,0.093 -0.122,0.15c-0.008,0.005 -0.014,0.008 -0.019,0.008c-0.021,0 -0.008,-0.052 0.011,-0.103c0.025,-0.059 0.058,-0.119 0.059,-0.099zM40.111,44.026c0.022,-0.022 0.027,-0.014 0.033,-0.013c0.008,0.002 0.017,-0.002 0.011,0.005c-0.009,0.009 -0.044,0.027 -0.055,0.027c-0.006,0.001 -0.005,-0.005 0.011,-0.019zM38.395,46.489c-0.052,0.006 -0.107,0.058 -0.158,0.058c-0.008,-0.002 -0.014,-0.002 -0.019,-0.003c-0.024,-0.008 0.035,-0.035 0.084,-0.069c0.056,-0.041 0.151,0.008 0.093,0.014zM38.287,45.711c0.027,-0.024 0.058,-0.057 0.051,-0.038c-0.013,0.03 -0.03,0.069 -0.063,0.069c-0.003,0 -0.008,0 -0.011,-0.002c-0.019,-0.002 0.001,-0.012 0.023,-0.029zM38.399,45.963c-0.009,0.002 -0.019,0.003 -0.028,0.003c-0.051,0 0.054,-0.058 0.134,-0.09c0.041,-0.017 0.081,-0.049 0.077,-0.021c-0.009,0.093 -0.025,0.081 -0.183,0.108zM38.614,45.719c-0.051,0.017 -0.125,0.081 -0.202,0.081c-0.008,-0.002 -0.014,-0.002 -0.019,-0.002c-0.082,-0.01 -0.019,-0.07 0,-0.099c0.017,-0.03 -0.044,-0.005 -0.038,-0.033c0.006,-0.028 0.152,-0.024 0.069,-0.051c-0.083,-0.027 -0.142,-0.039 -0.21,-0.055c-0.068,-0.014 0.212,-0.18 0.219,-0.136c0.008,0.044 -0.171,0.122 -0.115,0.12c0.055,-0.003 0.158,-0.011 0.147,0.009c-0.011,0.019 -0.082,0.008 -0.025,0.041c0.024,0.014 0.065,-0.002 0.101,-0.016c0.047,-0.021 0.087,-0.039 0.076,0.006c-0.022,0.081 0.051,0.116 -0.003,0.135zM38.584,45.479c-0.003,0.017 -0.011,0.025 -0.022,0.025c-0.046,-0.002 -0.141,-0.118 -0.09,-0.12c0.063,-0.002 0.087,-0.025 0.12,-0.066c0.043,-0.052 0.06,-0.142 0.066,-0.118c0.013,0.041 0.011,0.109 0.038,0.073c0.025,-0.038 0.076,-0.081 0.144,-0.069c0.069,0.009 -0.246,0.183 -0.256,0.275zM39.172,45.761c-0.033,-0.068 0.011,-0.088 0.046,-0.079c0.003,0 0.006,0.002 0.01,0.002c0.009,-0.002 0.022,-0.006 0.033,-0.009c0.022,-0.009 0.041,-0.017 0.035,0.011c-0.012,0.047 -0.068,0.195 -0.124,0.075zM39.522,45.611c-0.019,0 -0.036,-0.003 -0.051,-0.011c-0.081,-0.041 0.302,-0.088 0.256,-0.063c-0.038,0.019 -0.129,0.074 -0.205,0.074zM39.881,45.445c-0.011,0.024 -0.043,0.039 -0.066,0.044c-0.003,0 -0.006,0 -0.009,0c-0.039,0 0.049,-0.081 0.068,-0.111c0.011,-0.018 0.024,0.028 0.007,0.067zM39.959,45.431c-0.005,0.002 -0.008,-0.005 -0.011,-0.021c-0.011,-0.052 0.066,-0.055 0.046,-0.03c-0.014,0.02 -0.025,0.051 -0.035,0.051zM39.991,44.77c-0.006,0.062 -0.123,0.115 -0.256,0.063c-0.133,-0.052 -0.114,0.111 -0.087,0.148c0.027,0.036 0.079,0.111 0.088,0.019c0.01,-0.092 0.033,-0.016 0.058,-0.01c0,0 0.028,0.014 0.058,-0.047c0.03,-0.06 0.082,-0.054 0.043,0.076c-0.024,0.073 0.062,0.06 0.128,0.047c0.052,-0.009 0.09,-0.019 0.052,0.013c-0.085,0.074 -0.497,0.347 -0.756,0.458c-0.052,0.022 -0.099,0.033 -0.158,0.058c-0.014,0.005 -0.027,0.003 -0.039,0.002c-0.019,-0.003 -0.038,-0.006 -0.055,0.014c-0.022,0.027 0.022,0.114 -0.103,0.095c-0.047,-0.008 -0.058,0.038 -0.016,0.058c0.043,0.021 0.044,0.028 0.043,0.049c-0.002,0.021 -0.069,0.046 -0.066,0.122c0.003,0.047 -0.013,0.021 -0.039,-0.006c-0.017,-0.017 -0.038,-0.033 -0.063,-0.032c-0.063,0.003 -0.022,-0.028 -0.027,-0.068c-0.002,-0.019 -0.024,-0.013 -0.046,-0.008c-0.025,0.006 -0.052,0.013 -0.052,-0.016c-0.003,-0.052 0.051,-0.055 0.036,-0.084c-0.005,-0.011 -0.016,-0.008 -0.025,-0.006c-0.016,0.003 -0.035,0.008 -0.041,-0.038c-0.006,-0.043 -0.003,-0.155 0.073,-0.218c0.055,-0.047 0.186,-0.039 0.21,-0.117c0.024,-0.077 0.096,-0.161 0.164,-0.104c0.033,0.028 0.055,0.002 0.058,-0.027c0.003,-0.027 -0.009,-0.054 -0.043,-0.032c-0.068,0.046 -0.183,0.038 -0.171,-0.033c0.013,-0.073 0.055,-0.237 0.104,-0.066c0.016,0.052 0.129,-0.013 0.215,-0.093c0.051,-0.049 0.063,-0.131 0.114,-0.115c0.073,0.024 0.104,-0.009 0.133,-0.041c0.024,-0.027 0.044,-0.054 0.084,-0.05c0.008,0 0.016,0.002 0.024,0.002c0.227,-0.005 0.534,-0.243 0.548,-0.253c0.014,-0.011 0.046,-0.063 0.046,-0.009c-0.001,0.051 -0.222,0.086 -0.236,0.249zM40.026,44.909c-0.044,0.043 -0.104,0.085 -0.096,0.027c0.009,-0.065 0.036,-0.065 0.069,-0.063h0.011c0.017,0 0.035,-0.002 0.054,-0.014c0.025,-0.018 -0.002,0.016 -0.038,0.05zM40.158,45.221c-0.032,0.003 -0.049,-0.028 -0.011,-0.055c0.006,-0.005 0.016,-0.003 0.024,0c0.006,0.002 0.013,0.003 0.019,0.003c0.017,0 0.039,-0.008 0.069,-0.041c0.043,-0.047 0.109,-0.054 0.096,-0.032c-0.013,0.027 -0.041,0.055 -0.076,0.079c-0.035,0.024 -0.076,0.041 -0.121,0.046zM40.58,45.981c-0.002,0.024 -0.122,0.03 -0.248,0.073c-0.111,0.038 -0.223,0.096 -0.26,0.096c-0.013,0.002 -0.017,-0.005 -0.011,-0.019c0.024,-0.06 0.021,-0.09 0.06,-0.128c0.039,-0.038 0.471,-0.148 0.505,-0.153c0.036,-0.005 -0.043,0.079 -0.046,0.131zM40.661,45.941c-0.006,-0.009 -0.014,-0.002 -0.021,0.008c-0.008,0.011 -0.014,0.022 -0.013,-0.002c0,-0.032 0.006,-0.032 0.021,-0.032c0.006,0 0.013,0 0.021,-0.002c0.03,-0.005 -0.027,-0.041 0.022,-0.047c0.049,-0.008 0.12,-0.028 0.084,0.022c-0.036,0.05 -0.099,0.075 -0.114,0.053zM40.744,45.182c0.003,-0.054 0.158,-0.161 0.148,-0.077c-0.003,0.019 -0.033,0.021 -0.044,0.035c-0.028,0.035 -0.068,0.062 -0.088,0.062c-0.011,-0.001 -0.016,-0.008 -0.016,-0.02zM40.833,45.97c-0.009,0.025 -0.021,0.033 -0.028,0.033c-0.011,0 -0.017,-0.014 -0.006,-0.028c0.022,-0.024 0.027,-0.039 0.104,-0.125c0.077,-0.086 -0.05,0.063 -0.07,0.12zM40.978,45.04c-0.013,0.033 -0.058,0.142 -0.058,0.01c0,-0.024 0.003,-0.021 0.011,-0.017c0.003,0.002 0.006,0.002 0.009,0.002c0.008,0.002 0.016,-0.002 0.025,-0.013c0.03,-0.038 0.027,-0.014 0.013,0.018zM40.782,45.006c-0.019,0.013 -0.03,0.017 -0.035,0.017c-0.016,0.002 0.043,-0.062 0.047,-0.093c0.021,-0.153 0.197,-0.104 0.3,-0.153c0.02,-0.009 -0.239,0.184 -0.312,0.229zM41.155,44.989c-0.006,0.01 -0.017,0.019 -0.028,0.019c-0.003,0 -0.005,-0.002 -0.008,-0.002c-0.032,-0.009 0.03,-0.019 0.043,-0.035c0.005,-0.007 0.002,0.005 -0.007,0.018zM41.237,44.323c-0.069,0.069 -0.141,0.152 -0.27,0.152c-0.027,0.002 -0.058,-0.003 -0.093,-0.013c-0.107,-0.028 0.328,-0.242 0.49,-0.235c0.026,0.001 -0.072,0.041 -0.127,0.096zM41.38,43.153c-0.021,-0.002 -0.058,-0.002 -0.077,-0.011c-0.019,-0.009 0.057,-0.013 0.084,-0.013c0.025,0 0.014,0.024 -0.007,0.024zM37.116,48.261c-0.008,-0.002 -0.014,-0.002 -0.021,-0.002c-0.009,0 -0.005,-0.024 0.107,-0.038c0.112,-0.014 0.291,-0.096 0.272,-0.079c-0.017,0.018 -0.213,0.119 -0.358,0.119zM37.828,48.103c-0.024,0.008 -0.055,0.038 -0.076,0.038c-0.008,0 -0.014,-0.005 -0.019,-0.019c-0.008,-0.03 0.07,-0.029 0.095,-0.019zM37.926,48.179c-0.073,0.022 -0.137,0.093 -0.218,0.093h-0.013c0,0 -0.066,-0.016 0,-0.033c0.039,-0.011 0.082,-0.052 0.129,-0.071c0.032,-0.013 0.146,0 0.102,0.011zM45.067,41.571c0.036,-0.033 0.006,0.008 -0.008,0.043c-0.014,0.035 -0.013,0.063 -0.032,0.087c-0.006,0.008 -0.011,0.011 -0.016,0.011c-0.018,-0.001 -0.004,-0.088 0.056,-0.141zM44.827,38.508c0.032,-0.038 0.005,0.047 0.006,0.066c0.002,0.008 -0.051,0.032 -0.066,0.076c-0.016,0.046 -0.003,0.109 -0.014,0.109c-0.002,0.002 -0.003,0.002 -0.005,0c-0.077,-0.037 0.026,-0.193 0.079,-0.251zM44.897,42.059c0.09,-0.013 -0.238,0.238 -0.276,0.283c-0.003,0.003 -0.005,0.005 -0.008,0.005c-0.024,0.001 0.031,-0.254 0.284,-0.288zM44.553,42.648c0.074,-0.052 0.098,-0.077 0.063,-0.032c-0.036,0.046 -0.131,0.164 -0.191,0.243c-0.008,0.011 -0.013,0.016 -0.016,0.016c-0.013,-0.002 0.081,-0.183 0.144,-0.227zM44.256,41.972c0.024,-0.033 0.017,0.014 -0.003,0.052c-0.022,0.036 -0.032,0.044 -0.071,0.066c-0.002,0.002 -0.005,0.003 -0.008,0.003c-0.015,-0.001 0.06,-0.091 0.082,-0.121zM43.629,43.159c0.041,-0.066 0.041,-0.066 0.109,-0.172c0.068,-0.107 0.081,-0.008 0.033,0.057c-0.038,0.051 -0.131,0.136 -0.148,0.136c-0.005,0 -0.004,-0.007 0.006,-0.021zM43.597,42.665c-0.003,0 -0.003,-0.002 0,-0.008c0.017,-0.027 0.052,-0.074 0.073,-0.093c0.021,-0.017 0.043,0.025 0.014,0.046c-0.023,0.015 -0.076,0.055 -0.087,0.055zM43.703,42.526c0.024,-0.025 0.068,-0.125 0.047,-0.035c-0.011,0.046 -0.028,0.06 -0.041,0.06c-0.011,0 -0.017,-0.012 -0.006,-0.025zM43.661,41.635c0.073,-0.081 0.062,-0.084 0.12,-0.196c0.021,-0.041 -0.008,0.103 0,0.133c0.009,0.03 -0.043,0.051 -0.076,0.09c-0.035,0.038 -0.077,0.052 -0.11,0.081c-0.024,0.022 -0.052,0.054 -0.06,0.054c-0.005,-0.002 -0.005,-0.006 -0.002,-0.016c0.012,-0.038 0.055,-0.065 0.128,-0.146zM43.435,42.826c0.047,-0.041 0.12,-0.126 0.095,-0.082c-0.025,0.044 -0.033,0.058 -0.066,0.106c-0.013,0.017 -0.025,0.024 -0.035,0.024c-0.02,-0.001 -0.024,-0.021 0.006,-0.048zM43.299,41.913c0.006,0.039 0.017,0.082 -0.006,0.107c-0.016,0.019 -0.06,0.041 -0.077,0.041c-0.006,0.002 -0.009,-0.003 -0.002,-0.014c0.023,-0.036 0.079,-0.175 0.085,-0.134zM43.061,42.657c-0.039,0.066 -0.082,0.159 -0.095,0.159c-0.005,0 -0.006,-0.013 -0.002,-0.041c0.025,-0.175 0.226,-0.324 0.172,-0.205c-0.019,0.044 -0.044,0.032 -0.075,0.087zM43.081,45.351c0.008,0.024 -0.084,0.06 -0.114,0.073c-0.002,0 -0.003,0 -0.005,0c-0.008,0 0.009,-0.021 0.032,-0.041c0.032,-0.029 0.076,-0.058 0.087,-0.032zM43.282,43.045c0.055,0.032 -0.041,0.025 -0.06,0.035c-0.017,0.008 -0.036,0.011 -0.055,0.017c-0.022,0.028 -0.063,0.126 -0.077,0.126c-0.003,0.002 -0.005,-0.003 -0.005,-0.019c-0.013,-0.163 0.073,-0.228 0.197,-0.159zM43.083,42.21c0.032,-0.051 0.036,-0.057 0.066,-0.107c0.032,-0.051 0.039,0.017 0.013,0.046c-0.021,0.021 -0.077,0.076 -0.085,0.076c-0.002,0.001 -0.001,-0.004 0.006,-0.015zM41.54,44.028c-0.009,0 -0.016,-0.005 -0.011,-0.021c0.016,-0.057 0.066,-0.052 0.088,-0.038c0.018,0.011 -0.049,0.059 -0.077,0.059zM41.649,43.598c-0.002,0.002 -0.003,0.002 -0.005,0.002c-0.032,0 1.214,-1.126 1.32,-1.243c0.109,-0.122 0.074,-0.052 0.009,0.025c-0.065,0.077 -0.418,0.698 -0.927,0.895c-0.102,0.04 -0.298,0.261 -0.397,0.321zM42.721,45.561c0.016,0.003 -0.03,0.009 -0.055,0.019c-0.016,0.005 -0.024,0.013 -0.03,0.013c-0.005,0 -0.006,-0.003 -0.009,-0.014c-0.01,-0.031 0.069,-0.029 0.094,-0.018zM42.228,45.618c-0.022,-0.062 -0.088,-0.01 -0.15,0.044c-0.043,0.035 -0.082,0.071 -0.104,0.071c-0.002,-0.003 -0.005,-0.003 -0.006,-0.003c-0.051,-0.017 -0.223,-0.122 0.008,-0.178c0.231,-0.058 0.578,-0.245 0.527,-0.148c-0.102,0.218 -0.262,0.248 -0.275,0.214zM42.415,46.011c0.054,-0.043 0.077,-0.141 0.069,-0.079c0,0.035 0.011,0.049 0.028,0.049c0.03,-0.002 0.079,-0.036 0.131,-0.073c0.082,-0.057 0.172,-0.115 0.202,-0.025c0.017,0.052 -0.309,0.098 -0.488,0.197c-0.042,0.024 -0.002,-0.024 0.058,-0.069zM41.957,46.243c0.076,-0.069 0.366,-0.145 0.317,-0.114c-0.079,0.049 -0.128,0.092 -0.237,0.177c-0.035,0.027 -0.062,0.038 -0.082,0.038c-0.042,-0.002 -0.049,-0.054 0.002,-0.101zM39.24,48.273c-0.114,0.141 -0.18,0.085 -0.254,0.03c-0.07,-0.05 -0.145,-0.101 -0.27,-0.005c-0.071,0.057 -0.104,0.077 -0.114,0.077c-0.022,0 0.123,-0.147 0.156,-0.169c0.13,-0.082 0.39,-0.017 0.538,-0.104c0.052,-0.031 0.079,0.002 -0.056,0.171zM39.225,47.856c-0.017,-0.033 0.088,-0.033 0.058,-0.009c-0.017,0.014 -0.03,0.028 -0.039,0.028c-0.006,0 -0.012,-0.006 -0.019,-0.019zM39.558,47.867c-0.025,-0.027 -0.003,-0.027 0.038,-0.025c0.06,0 0.159,0 0.226,-0.079c0.013,-0.013 -0.022,0 -0.051,0c-0.076,0.002 -0.147,-0.013 -0.216,-0.028c-0.18,-0.038 -0.362,-0.077 -0.638,0.169c-0.063,0.052 -0.529,0.238 -0.595,0.18c-0.063,-0.058 0.226,-0.019 0.559,-0.538c0.079,-0.106 0.706,-0.174 0.736,-0.155c0.013,0.009 -0.054,0.071 -0.152,0.104c-0.152,0.051 -0.351,0.079 -0.229,0.104c0.212,0.035 0.603,-0.107 0.878,-0.507c-0.024,0.117 0.081,-0.021 0.111,-0.032c0.027,-0.014 0.017,-0.057 0.019,-0.077c0.014,-0.014 0.014,0.099 0.092,0.107c0.077,0.006 -0.177,0.054 -0.18,0.115c-0.005,0.063 0.032,0.111 0.066,0.107c0.104,-0.013 0.452,-0.396 0.431,-0.221c0,0.06 0.081,-0.096 0.117,-0.126c0.099,-0.081 0.183,-0.073 0.265,-0.066c0.024,0.003 0.047,0.003 0.071,0.003c0.066,-0.005 0.137,-0.019 0.219,-0.088c0.145,-0.125 0.303,-0.24 0.401,-0.283c0.099,-0.044 0.189,-0.052 0.279,-0.103c0.09,-0.05 0.297,-0.253 0.166,-0.087c-0.133,0.166 -1.396,0.771 -2.168,1.222c-0.096,0.055 -0.199,0.077 -0.171,0.088c0.043,0.011 0.087,0.133 0.148,0.103c0.115,-0.055 0.191,-0.021 0.156,0.011c-0.233,0.268 -0.469,0.254 -0.578,0.102zM40.956,47.675c-0.03,0.038 -0.057,0.002 -0.128,-0.008c-0.071,-0.008 -0.085,0.019 -0.161,0.058c-0.076,0.038 -0.039,0.005 -0.03,-0.013c0.009,-0.017 0.039,-0.054 0.107,-0.077c0.041,-0.014 0.074,-0.01 0.104,-0.003c0.014,0.002 0.028,0.005 0.041,0.005c0.006,0 0.011,-0.002 0.014,-0.002c0.044,-0.006 0.047,-0.008 0.085,-0.028c0.021,-0.011 -0.002,0.03 -0.032,0.068zM43.173,46.03c-0.049,0.036 -0.177,0.131 -0.264,0.194c-0.75,0.54 -1.451,0.922 -2.154,1.315c-0.101,0.057 -0.223,0.133 -0.418,0.11c-0.047,-0.006 -0.096,-0.005 -0.144,0.005c-0.066,0.011 -0.087,0.022 -0.054,-0.054c0.021,-0.047 0.079,-0.041 0.155,-0.035c0.112,0.01 0.262,0.017 0.39,-0.144c0.017,-0.028 -0.062,-0.032 -0.039,-0.052c0.079,-0.09 0.139,-0.09 0.186,-0.09c0.005,0 0.009,0 0.014,0c0.049,-0.002 -0.155,0.035 -0.144,0.106c0.022,0.164 0.172,-0.062 0.256,-0.076c0.084,-0.013 0.052,-0.066 0.043,-0.092c-0.009,-0.024 0.734,-0.586 0.861,-0.366c0.005,0.022 0.182,-0.073 0.237,-0.185c0.032,-0.065 -0.022,-0.047 -0.063,-0.032c-0.019,0.008 -0.035,0.016 -0.039,0.016c-0.005,0.002 -0.003,-0.002 0.003,-0.009c0.043,-0.044 0.819,-0.493 1.233,-0.755c0.038,-0.025 -0.03,0.041 -0.036,0.06c-0.008,0.02 0.024,0.047 -0.023,0.084zM43.496,45.07c0.039,-0.03 0.046,-0.025 0.06,-0.019c0.011,0.003 0.025,0.006 0.06,0c0.082,-0.017 -0.322,0.207 -0.343,0.207c-0.018,0 0.159,-0.138 0.223,-0.188zM43.305,45.842c0,0 -0.002,0 -0.003,-0.002c-0.011,-0.027 0.107,-0.081 0.226,-0.169c0.115,-0.087 0.182,-0.243 0.295,-0.328c0.136,-0.099 0.313,-0.118 0.295,-0.093c-0.101,0.254 -0.751,0.592 -0.813,0.592zM44.194,43.609c-0.265,0.128 -0.327,0.275 -0.463,0.414c-0.136,0.141 -0.153,0.032 -0.052,-0.055c0.103,-0.085 0.017,-0.093 0.003,-0.141c-0.008,-0.022 0.013,-0.014 0.041,-0.005c0.014,0.003 0.032,0.008 0.047,0.008c0.017,0.002 0.033,-0.003 0.044,-0.021c0.202,-0.237 0.298,-0.491 0.526,-0.621c0.227,-0.131 1.07,-1.145 0.984,-1.014c-0.086,0.132 -0.866,1.307 -1.13,1.435zM45.456,44.586c-0.256,0.197 -0.177,0.191 -0.284,0.267c-0.107,0.076 -0.101,0.092 -0.226,0.188c-0.126,0.096 -0.216,0.155 -0.281,0.201c-0.024,0.017 -0.036,0.024 -0.041,0.024c-0.006,-0.002 0.014,-0.022 0.058,-0.054c0.069,-0.049 0.052,-0.066 0.096,-0.104c0.044,-0.038 0.041,-0.021 0.098,-0.066c0.058,-0.046 0.063,-0.052 0.109,-0.103c0.046,-0.049 0.017,-0.011 0.109,-0.076c0.093,-0.065 0.159,-0.141 0.232,-0.221c0.073,-0.08 0.178,-0.159 0.174,-0.144c-0.002,0.005 0.009,0.003 0.019,0.002c0.028,-0.005 0.063,-0.01 -0.063,0.086zM50.229,26.015c-0.043,-0.027 -0.092,-0.145 -0.079,-0.171c0.038,-0.077 0.093,-0.238 0.079,-0.15c-0.002,0.017 -0.036,0.152 -0.036,0.164c-0.002,0.074 0.076,0.169 0.06,0.169c-0.005,0.001 -0.013,-0.004 -0.024,-0.012zM50.591,36.569c0.036,0.021 0.052,0.144 0.039,0.231c-0.006,0.044 -0.019,0.081 -0.039,0.087c-0.005,0.003 -0.008,0.005 -0.011,0.005c-0.021,0.002 0.009,-0.065 0.009,-0.112c0,-0.033 0.025,-0.082 0.021,-0.125c-0.008,-0.066 -0.043,-0.116 -0.019,-0.086zM50.851,28.003c-0.035,0 -0.224,-0.259 -0.172,-0.316c0.013,-0.011 0.039,0.032 0.092,0.058c0.033,0.019 0.093,0.014 0.109,0.043c0.025,0.043 -0.011,0.051 -0.027,0.101c-0.006,0.021 0.011,0.103 0.003,0.111c0,0.003 -0.003,0.003 -0.005,0.003zM50.878,28.205c-0.003,0.003 -0.006,0.003 -0.008,0.003c-0.028,0 0.017,-0.109 0.035,-0.152c0.009,-0.021 0.017,-0.109 0.025,-0.068c0.017,0.06 0.038,0.117 0.009,0.164c-0.011,0.02 -0.031,0.037 -0.061,0.053zM50.941,28.435c-0.003,0 -0.008,-0.002 -0.011,-0.006c-0.013,-0.016 -0.021,-0.024 -0.025,-0.035c-0.013,-0.025 0.028,-0.063 0.038,-0.063c0.01,0 0.014,0.054 0.014,0.065c-0.002,0.02 -0.005,0.039 -0.016,0.039z" fill="url(#color-18)"></path><path d="M42.036,47.429c-0.076,0.052 -0.057,0.084 -0.106,0.12c-0.022,0.017 0.095,-0.013 0.131,-0.038c0.107,-0.074 0.333,-0.275 0.325,-0.275c0.002,0 -0.002,0.002 -0.005,0.003c-0.075,0.052 -0.269,0.139 -0.345,0.19z" fill="url(#color-19)"></path><path d="M38.865,46.732c0.025,-0.006 0.213,-0.05 0.237,-0.057c0.019,-0.005 -0.109,-0.036 -0.161,-0.036c-0.014,0.002 -0.024,0.005 -0.024,0.008c-0.011,0.063 -0.079,0.092 -0.052,0.085z" fill="url(#color-20)"></path><path d="M36.494,46.936c0,0 -0.002,-0.002 -0.003,-0.002c-0.006,0 -0.025,0.021 -0.039,0.041c-0.017,0.022 -0.03,0.044 -0.019,0.039c0.022,-0.009 0.06,-0.03 0.076,-0.051c0.015,-0.019 -0.007,-0.013 -0.015,-0.027z" fill="url(#color-21)"></path><path d="M38.766,47.113c-0.008,0.024 0.008,0 0.024,-0.017c0.016,-0.017 0.057,-0.024 0.032,-0.028c-0.005,-0.002 -0.009,-0.002 -0.014,-0.002c-0.019,-0.002 -0.031,0.009 -0.042,0.047z" fill="url(#color-22)"></path><path d="M36.416,47.059c-0.013,0.024 0.006,0.071 0,0.099c-0.006,0.027 -0.033,0.046 -0.03,0.096c0.005,0.098 0.046,0.066 0.071,0.062c0.021,0.011 0.07,-0.021 0.039,-0.022c-0.03,0 -0.063,0 -0.088,-0.016c-0.025,-0.014 0.099,0.002 0.101,-0.038c0.002,-0.039 0.111,-0.126 0.03,-0.095c-0.043,0.017 -0.069,-0.013 -0.088,-0.043c-0.016,-0.024 -0.024,-0.047 -0.032,-0.047c-0.001,0.001 -0.001,0.002 -0.003,0.004z" fill="url(#color-23)"></path><path d="M39.765,46.767c0.009,-0.003 -0.006,-0.011 0.009,-0.016c0.006,-0.003 0.01,0 0.011,0.003c0.003,0.003 0.005,0.005 0.016,0.002c0.019,-0.008 0.128,-0.052 0.15,-0.062c0.011,-0.005 -0.035,-0.028 -0.049,-0.063c-0.013,-0.03 -0.016,-0.062 -0.024,-0.062c-0.002,0 -0.008,0.009 -0.017,0.035c-0.021,0.055 -0.06,0.052 -0.098,0.051c-0.046,-0.002 -0.093,-0.005 -0.111,0.095c-0.002,0.011 -0.005,-0.003 -0.013,-0.016c-0.006,-0.013 -0.017,-0.027 -0.033,-0.017c-0.022,0.013 -0.044,0.027 -0.066,0.039c-0.024,0.013 -0.016,0.025 0.002,0.035c0.02,0.009 0.206,-0.016 0.223,-0.024z" fill="url(#color-24)"></path><path d="M38.927,46.623c0.017,0 0.041,-0.002 0.055,-0.002c0.014,0.002 0.017,-0.041 0.025,-0.046c0.008,-0.005 0.12,-0.055 0.101,-0.06c-0.009,-0.003 -0.021,-0.003 -0.03,-0.003c-0.091,-0.001 -0.167,0.111 -0.151,0.111z" fill="url(#color-25)"></path><path d="M39.672,46.161h-0.005c-0.019,0 -0.052,0.016 -0.079,0.032c-0.032,0.019 -0.052,0.038 -0.024,0.032c0.052,-0.013 0.103,-0.019 0.136,-0.021c0.034,-0.002 0.004,-0.037 -0.028,-0.043z" fill="url(#color-26)"></path><path d="M43.433,46.48c-0.063,0.047 -0.129,0.096 -0.196,0.144c-0.017,0.039 -0.039,0.077 -0.066,0.093c-0.041,0.024 -0.068,0.073 -0.066,0.103c0.003,0.03 0.024,0.005 0.062,-0.032c0.038,-0.037 0.054,-0.036 0.133,-0.074c0.079,-0.038 0.055,-0.035 0.115,-0.084c0.06,-0.049 0.041,-0.047 0.071,-0.107c0.012,-0.029 -0.017,-0.036 -0.053,-0.043z" fill="url(#color-27)"></path><path d="M37.061,47.545c-0.014,0.002 -0.052,0.032 -0.071,0.062c-0.028,0.046 -0.107,0.111 -0.164,0.106c-0.057,-0.003 -0.081,-0.028 -0.114,-0.027c-0.035,0.002 -0.044,0.087 -0.087,0.125c-0.027,0.024 -0.041,0.019 -0.06,0.013c-0.011,-0.003 -0.022,-0.006 -0.038,-0.005c-0.044,0.006 0.103,0.057 0.205,0c0.101,-0.057 0.081,-0.016 0.123,-0.003c0.044,0.013 0.046,-0.03 0.096,-0.051c0.051,-0.022 -0.024,-0.027 0.027,-0.047c0.043,-0.017 0.066,-0.095 0.087,-0.148c0.007,-0.018 0.003,-0.025 -0.004,-0.025z" fill="url(#color-28)"></path><path d="M18.977,30.624c-0.095,-0.099 -0.545,-0.711 -0.589,-0.826c-0.148,-0.131 -0.437,-0.591 -0.573,-0.772c-0.197,-0.262 -0.373,-0.501 -0.554,-0.761c-0.142,-0.204 -1.063,-1.44 -1.089,-1.558l-2.484,-0.011c0.041,0.131 2.664,3.756 2.964,4.156c0.261,0.349 0.499,0.698 0.748,1.036c0.134,0.183 0.237,0.333 0.366,0.51c0.219,0.302 0.212,0.223 0.212,0.696c-0.003,1.154 -0.051,2.433 0,3.573l1.637,0.013v0l0.355,-0.006c0.006,-1.887 0.011,-1.552 -0.002,-3.673c-0.003,-0.441 0.106,-0.477 0.504,-1.007c0.237,-0.316 3.758,-5.163 3.802,-5.296h-2.46zM11.505,31.968c0.439,-0.512 0.463,-0.984 0.463,-1.787c0,-1.296 0.243,-2.654 -1.162,-3.309c-0.554,-0.259 -1.369,-0.183 -2.051,-0.183h-6.755v2.008h3.971c0.489,0 3.778,-0.069 3.939,0.041c0.088,0.095 0.055,0.298 0.055,0.471c0,0.292 0.049,1.355 -0.054,1.443c-0.164,0.084 -7.08,0.035 -7.911,0.035v5.997l1.996,-0.002v-3.992l3.669,-0.005l2.304,3.996l2.296,0.002c-0.128,-0.358 -2.198,-3.744 -2.263,-3.996c0.726,-0.02 1.183,-0.347 1.503,-0.719zM49.018,32.676l-0.003,-1.989l-3.849,0.005l-6.111,-0.005v5.991v0l9.96,0.008l-0.002,-2.004l-3.627,0.002l-4.322,-0.003l-0.013,-1.986l4.298,-0.003zM54.036,29.784c0.134,0.087 4.552,5.272 5.199,6.019l0.764,0.868l2.001,0.007v-9.985h-1.98l-0.016,6.886c-0.169,-0.09 -3.21,-3.704 -3.459,-3.977c-0.668,-0.733 -1.491,-1.8 -2.139,-2.493c-0.074,-0.079 -0.142,-0.158 -0.219,-0.251c-0.087,-0.104 -0.087,-0.166 -0.281,-0.167c-0.591,-0.005 -1.274,-0.025 -1.857,0.005l-0.016,9.968l2.002,0.014zM49.018,28.688l-0.014,-2.007l-9.946,0.013v0l-0.006,2.002l5.784,0.003zM26.314,26.719l-0.002,1.966v0l6.878,0.013c-0.084,0.133 -0.81,0.726 -0.99,0.886c-0.155,0.137 -0.321,0.284 -0.486,0.42l-2.487,2.146c-0.807,0.657 -1.672,1.481 -2.469,2.13c-0.09,0.074 -0.161,0.145 -0.254,0.216c-0.101,0.077 -0.18,0.109 -0.191,0.289c-0.033,0.583 0.003,1.293 0.002,1.89l9.96,0.003v-1.991l-6.881,-0.006c0.069,-0.118 0.802,-0.718 0.963,-0.865c0.159,-0.145 0.317,-0.272 0.488,-0.418c0.166,-0.142 0.332,-0.298 0.504,-0.434l0.742,-0.635c0.861,-0.758 1.971,-1.656 2.754,-2.379l0.99,-0.856c0.226,-0.185 0.433,-0.308 0.442,-0.504c0.027,-0.542 0.021,-1.342 -0.006,-1.885c-0.797,-0.035 -1.667,-0.005 -2.473,-0.005c-1.116,-0.005 -7.269,-0.054 -7.484,0.019z" fill="url(#color-29)"></path></g></g></svg>